# Blender v3.2.0 OBJ File: 'Bazooka.blend'
# www.blender.org
mtllib BazookaRocket.mtl
o Cone
v 0.000000 -0.170000 0.300000
v 0.065056 -0.157060 0.300000
v 0.120208 -0.120208 0.300000
v 0.157060 -0.065056 0.300000
v 0.170000 0.000000 0.300000
v 0.157060 0.065056 0.300000
v 0.120208 0.120208 0.300000
v 0.065056 0.157060 0.300000
v -0.000000 0.170000 0.300000
v -0.065056 0.157060 0.300000
v -0.120208 0.120208 0.300000
v -0.157060 0.065056 0.300000
v -0.170000 0.000000 0.300000
v -0.157060 -0.065056 0.300000
v -0.120208 -0.120208 0.300000
v -0.065056 -0.157060 0.300000
v 0.000000 -0.000000 -0.300000
v 0.000000 0.170000 0.300000
v 0.000000 0.170000 0.900000
v 0.065056 0.157060 0.300000
v 0.065056 0.157060 0.900000
v 0.120208 0.120208 0.300000
v 0.120208 0.120208 0.900000
v 0.157060 0.065056 0.300000
v 0.157060 0.065056 0.900000
v 0.170000 0.000000 0.300000
v 0.170000 -0.000000 0.900000
v 0.157060 -0.065056 0.300000
v 0.157060 -0.065056 0.900000
v 0.120208 -0.120208 0.300000
v 0.120208 -0.120208 0.900000
v 0.065056 -0.157060 0.300000
v 0.065056 -0.157060 0.900000
v -0.000000 -0.170000 0.300000
v -0.000000 -0.170000 0.900000
v -0.065056 -0.157060 0.300000
v -0.065056 -0.157060 0.900000
v -0.120208 -0.120208 0.300000
v -0.120208 -0.120208 0.900000
v -0.157060 -0.065056 0.300000
v -0.157060 -0.065056 0.900000
v -0.170000 0.000000 0.300000
v -0.170000 -0.000000 0.900000
v -0.157060 0.065056 0.300000
v -0.157060 0.065056 0.900000
v -0.120208 0.120208 0.300000
v -0.120208 0.120208 0.900000
v -0.065056 0.157060 0.300000
v -0.065056 0.157060 0.900000
v 0.000000 0.170000 0.900000
v 0.000000 0.120000 1.300000
v 0.065056 0.157060 0.900000
v 0.045922 0.110866 1.300000
v 0.120208 0.120208 0.900000
v 0.084853 0.084853 1.300000
v 0.157060 0.065056 0.900000
v 0.110866 0.045922 1.300000
v 0.170000 0.000000 0.900000
v 0.120000 -0.000000 1.300000
v 0.157060 -0.065056 0.900000
v 0.110866 -0.045922 1.300000
v 0.120208 -0.120208 0.900000
v 0.084853 -0.084853 1.300000
v 0.065056 -0.157060 0.900000
v 0.045922 -0.110866 1.300000
v -0.000000 -0.170000 0.900000
v -0.000000 -0.120000 1.300000
v -0.065056 -0.157060 0.900000
v -0.045922 -0.110866 1.300000
v -0.120208 -0.120208 0.900000
v -0.084853 -0.084853 1.300000
v -0.157060 -0.065056 0.900000
v -0.110866 -0.045922 1.300000
v -0.170000 0.000000 0.900000
v -0.120000 -0.000000 1.300000
v -0.157060 0.065056 0.900000
v -0.110866 0.045922 1.300000
v -0.120208 0.120208 0.900000
v -0.084853 0.084853 1.300000
v -0.065056 0.157060 0.900000
v -0.045922 0.110866 1.300000
v 0.045922 0.110866 2.500000
v 0.000000 0.120000 2.500000
v 0.084853 0.084853 2.500000
v 0.110866 0.045922 2.500000
v 0.120000 0.000000 2.500000
v 0.110866 -0.045922 2.500000
v 0.084853 -0.084853 2.500000
v 0.045922 -0.110865 2.500000
v -0.000000 -0.120000 2.500000
v -0.045922 -0.110865 2.500000
v -0.084853 -0.084853 2.500000
v -0.110866 -0.045922 2.500000
v -0.120000 0.000000 2.500000
v -0.110866 0.045922 2.500000
v -0.084853 0.084853 2.500000
v -0.045922 0.110866 2.500000
v 0.000000 0.180000 2.500000
v -0.180000 0.000000 2.500000
v -0.084853 0.084853 1.596940
v -0.045922 0.110866 1.596940
v 0.084853 0.084853 1.596940
v 0.110866 0.045922 1.596940
v 0.045922 -0.110866 1.596940
v -0.000000 -0.120000 1.596940
v 0.000000 0.120000 1.596940
v 0.045922 0.110866 1.596940
v -0.110866 0.045922 1.596940
v 0.110866 -0.045922 1.596940
v 0.084853 -0.084853 1.596940
v -0.084853 -0.084853 1.596940
v -0.110866 -0.045922 1.596940
v 0.120000 0.000000 1.596940
v -0.045922 -0.110866 1.596940
v -0.180000 0.000000 1.594429
v -0.120000 0.000000 1.594431
v 0.000000 0.180000 1.596940
v 0.180000 0.000000 2.500000
v 0.180000 0.000000 1.596940
v -0.000000 -0.180000 2.500000
v -0.000000 -0.180000 1.596940
v 0.000000 0.145000 1.100000
v 0.055489 0.133963 1.100000
v 0.102530 0.102530 1.100000
v 0.133963 0.055489 1.100000
v 0.145000 -0.000000 1.100000
v 0.133963 -0.055489 1.100000
v 0.102530 -0.102530 1.100000
v 0.055489 -0.133963 1.100000
v -0.000000 -0.145000 1.100000
v -0.055489 -0.133963 1.100000
v -0.102530 -0.102530 1.100000
v -0.133963 -0.055489 1.100000
v -0.145000 0.000000 1.100000
v -0.133963 0.055489 1.100000
v -0.102530 0.102530 1.100000
v -0.055489 0.133963 1.100000
vt 0.750000 0.490000
vt 0.841844 0.471731
vt 0.919706 0.419706
vt 0.971731 0.341844
vt 0.990000 0.250000
vt 0.971731 0.158156
vt 0.919706 0.080294
vt 0.841844 0.028269
vt 0.750000 0.010000
vt 0.658156 0.028269
vt 0.580294 0.080294
vt 0.528269 0.158156
vt 0.510000 0.250000
vt 0.528269 0.341844
vt 0.580294 0.419706
vt 0.658156 0.471731
vt 0.341844 0.471731
vt 0.250000 0.490000
vt 0.158156 0.471731
vt 0.080294 0.419706
vt 0.028269 0.341844
vt 0.010000 0.250000
vt 0.028269 0.158156
vt 0.080294 0.080294
vt 0.158156 0.028269
vt 0.250000 0.010000
vt 0.341844 0.028269
vt 0.419706 0.080294
vt 0.471731 0.158156
vt 0.490000 0.250000
vt 0.471731 0.341844
vt 0.419706 0.419706
vt 0.750000 0.490000
vt 0.841844 0.471731
vt 0.919706 0.419706
vt 0.971731 0.341844
vt 0.990000 0.250000
vt 0.971731 0.158156
vt 0.919706 0.080294
vt 0.841844 0.028269
vt 0.750000 0.010000
vt 0.658156 0.028269
vt 0.580294 0.080294
vt 0.528269 0.158156
vt 0.510000 0.250000
vt 0.528269 0.341844
vt 0.580294 0.419706
vt 0.658156 0.471731
vt 0.341844 0.471731
vt 0.250000 0.490000
vt 0.158156 0.471731
vt 0.080294 0.419706
vt 0.028269 0.341844
vt 0.010000 0.250000
vt 0.028269 0.158156
vt 0.080294 0.080294
vt 0.158156 0.028269
vt 0.250000 0.010000
vt 0.341844 0.028269
vt 0.419706 0.080294
vt 0.471731 0.158156
vt 0.490000 0.250000
vt 0.471731 0.341844
vt 0.419706 0.419706
vt 0.250000 0.490000
vt 0.250000 0.250000
vt 0.341844 0.471731
vt 0.419706 0.419706
vt 0.471731 0.341844
vt 0.490000 0.250000
vt 0.471731 0.158156
vt 0.419706 0.080294
vt 0.341844 0.028269
vt 0.250000 0.010000
vt 0.158156 0.028269
vt 0.080294 0.080294
vt 0.028269 0.158156
vt 0.010000 0.250000
vt 0.028269 0.341844
vt 0.080294 0.419706
vt 0.158156 0.471731
vt 1.000000 0.500000
vt 1.000000 1.000000
vt 0.937500 1.000000
vt 0.937500 0.500000
vt 0.875000 1.000000
vt 0.875000 0.500000
vt 0.812500 1.000000
vt 0.812500 0.500000
vt 0.750000 1.000000
vt 0.750000 0.500000
vt 0.687500 1.000000
vt 0.687500 0.500000
vt 0.625000 1.000000
vt 0.625000 0.500000
vt 0.562500 1.000000
vt 0.562500 0.500000
vt 0.500000 1.000000
vt 0.500000 0.500000
vt 0.437500 1.000000
vt 0.437500 0.500000
vt 0.375000 1.000000
vt 0.375000 0.500000
vt 0.312500 1.000000
vt 0.312500 0.500000
vt 0.250000 1.000000
vt 0.250000 0.500000
vt 0.187500 1.000000
vt 0.187500 0.500000
vt 0.125000 1.000000
vt 0.125000 0.500000
vt 0.062500 1.000000
vt 0.062500 0.500000
vt 0.000000 1.000000
vt 0.000000 0.500000
vt 0.750000 0.490000
vt 0.841844 0.471731
vt 0.919706 0.419706
vt 0.971731 0.341844
vt 0.990000 0.250000
vt 0.971731 0.158156
vt 0.919706 0.080294
vt 0.841844 0.028269
vt 0.750000 0.010000
vt 0.658156 0.028269
vt 0.580294 0.080294
vt 0.528269 0.158156
vt 0.510000 0.250000
vt 0.528269 0.341844
vt 0.580294 0.419706
vt 0.658156 0.471731
vt 0.062500 0.500000
vt 0.062500 0.750000
vt 0.000000 0.750000
vt 0.000000 0.500000
vt 0.125000 0.500000
vt 0.125000 0.750000
vt 0.187500 0.500000
vt 0.187500 0.750000
vt 0.250000 0.500000
vt 0.250000 0.750000
vt 0.312500 0.500000
vt 0.312500 0.750000
vt 0.375000 0.500000
vt 0.375000 0.750000
vt 0.437500 0.500000
vt 0.437500 0.750000
vt 0.500000 0.500000
vt 0.500000 0.750000
vt 0.562500 0.500000
vt 0.562500 0.750000
vt 0.625000 0.500000
vt 0.625000 0.750000
vt 0.687500 0.500000
vt 0.687500 0.750000
vt 0.750000 0.500000
vt 0.750000 0.750000
vt 0.812500 0.500000
vt 0.812500 0.750000
vt 0.875000 0.500000
vt 0.875000 0.750000
vt 0.937500 0.500000
vt 0.937500 0.750000
vt 1.000000 0.500000
vt 1.000000 0.750000
vt 1.000000 1.000000
vt 0.937500 1.000000
vt 0.875000 1.000000
vt 0.812500 1.000000
vt 0.750000 1.000000
vt 0.687500 1.000000
vt 0.625000 1.000000
vt 0.562500 1.000000
vt 0.500000 1.000000
vt 0.437500 1.000000
vt 0.375000 1.000000
vt 0.312500 1.000000
vt 0.250000 1.000000
vt 0.187500 1.000000
vt 0.125000 1.000000
vt 0.062500 1.000000
vt 0.000000 1.000000
vt 0.250000 1.000000
vt 0.250000 1.000000
vt 0.000000 1.000000
vt 0.000000 1.000000
vt 0.000000 1.000000
vt 0.000000 1.000000
vt 0.250000 1.000000
vt 0.250000 1.000000
vt 0.750000 1.000000
vt 0.750000 1.000000
vt 0.750000 1.000000
vt 0.750000 1.000000
vt 0.500000 1.000000
vt 0.500000 1.000000
vt 0.500000 1.000000
vt 0.500000 1.000000
vt 0.000000 0.000000
vt 0.000000 0.000000
vt 0.000000 0.000000
vt 0.062500 1.000000
vt 0.125000 1.000000
vt 0.125000 1.000000
vt 0.062500 1.000000
vt 0.812500 1.000000
vt 0.875000 1.000000
vt 0.875000 1.000000
vt 0.812500 1.000000
vt 0.562500 1.000000
vt 0.562500 1.000000
vt 0.937500 1.000000
vt 1.000000 1.000000
vt 1.000000 1.000000
vt 0.937500 1.000000
vt 0.187500 1.000000
vt 0.187500 1.000000
vt 0.625000 1.000000
vt 0.687500 1.000000
vt 0.687500 1.000000
vt 0.625000 1.000000
vt 0.312500 1.000000
vt 0.375000 1.000000
vt 0.375000 1.000000
vt 0.312500 1.000000
vt 0.437500 1.000000
vt 0.437500 1.000000
vn -0.0000 0.0000 1.0000
vn -0.0000 0.0000 -1.0000
vn 0.1880 -0.9450 -0.2677
vn 0.5353 -0.8011 -0.2677
vn 0.8011 -0.5353 -0.2677
vn 0.9450 -0.1880 -0.2677
vn 0.9450 0.1880 -0.2677
vn 0.8011 0.5353 -0.2677
vn 0.5353 0.8011 -0.2677
vn 0.1880 0.9450 -0.2677
vn -0.1880 0.9450 -0.2677
vn -0.5353 0.8011 -0.2677
vn -0.8011 0.5353 -0.2677
vn -0.9450 0.1880 -0.2677
vn -0.9450 -0.1880 -0.2677
vn -0.8011 -0.5353 -0.2677
vn -0.5353 -0.8011 -0.2677
vn -0.1880 -0.9450 -0.2677
vn 0.1951 0.9808 0.0000
vn 0.5556 0.8315 0.0000
vn 0.8315 0.5556 0.0000
vn 0.9808 0.1951 0.0000
vn 0.9808 -0.1951 -0.0000
vn 0.8315 -0.5556 -0.0000
vn 0.5556 -0.8315 -0.0000
vn 0.1951 -0.9808 -0.0000
vn -0.1951 -0.9808 -0.0000
vn -0.5556 -0.8315 -0.0000
vn -0.8315 -0.5556 -0.0000
vn -0.9808 -0.1951 -0.0000
vn -0.9808 0.1951 0.0000
vn -0.8315 0.5556 0.0000
vn -0.5556 0.8315 0.0000
vn -0.1951 0.9808 0.0000
vn -0.1936 0.9735 0.1217
vn -0.5514 0.8253 0.1217
vn -0.8253 0.5514 0.1217
vn -0.9735 0.1936 0.1217
vn -0.9735 -0.1936 0.1217
vn -0.8253 -0.5514 0.1217
vn -0.5514 -0.8253 0.1217
vn -0.1936 -0.9735 0.1217
vn 0.1936 -0.9735 0.1217
vn 0.5514 -0.8253 0.1217
vn 0.8253 -0.5514 0.1217
vn 0.9735 -0.1936 0.1217
vn 0.9735 0.1936 0.1217
vn 0.8253 0.5514 0.1217
vn 0.5514 0.8253 0.1217
vn 0.1936 0.9735 0.1217
vn 0.0000 -1.0000 0.0000
vn 1.0000 0.0000 -0.0000
vn 0.0000 1.0000 -0.0000
usemtl Material.003
s off
f 1/1/1 2/2/1 3/3/1 4/4/1 5/5/1 6/6/1 7/7/1 8/8/1 9/9/1 10/10/1 11/11/1 12/12/1 13/13/1 14/14/1 15/15/1 16/16/1
f 21/17/1 19/18/1 49/19/1 47/20/1 45/21/1 43/22/1 41/23/1 39/24/1 37/25/1 35/26/1 33/27/1 31/28/1 29/29/1 27/30/1 25/31/1 23/32/1
f 50/33/2 52/34/2 54/35/2 56/36/2 58/37/2 60/38/2 62/39/2 64/40/2 66/41/2 68/42/2 70/43/2 72/44/2 74/45/2 76/46/2 78/47/2 80/48/2
f 82/49/1 83/50/1 97/51/1 96/52/1 95/53/1 94/54/1 93/55/1 92/56/1 91/57/1 90/58/1 89/59/1 88/60/1 87/61/1 86/62/1 85/63/1 84/64/1
usemtl Material.004
f 1/65/3 17/66/3 2/67/3
f 2/67/4 17/66/4 3/68/4
f 3/68/5 17/66/5 4/69/5
f 4/69/6 17/66/6 5/70/6
f 5/70/7 17/66/7 6/71/7
f 6/71/8 17/66/8 7/72/8
f 7/72/9 17/66/9 8/73/9
f 8/73/10 17/66/10 9/74/10
f 9/74/11 17/66/11 10/75/11
f 10/75/12 17/66/12 11/76/12
f 11/76/13 17/66/13 12/77/13
f 12/77/14 17/66/14 13/78/14
f 13/78/15 17/66/15 14/79/15
f 14/79/16 17/66/16 15/80/16
f 15/80/17 17/66/17 16/81/17
f 16/81/18 17/66/18 1/65/18
f 18/82/19 19/83/19 21/84/19 20/85/19
f 20/85/20 21/84/20 23/86/20 22/87/20
f 22/87/21 23/86/21 25/88/21 24/89/21
f 24/89/22 25/88/22 27/90/22 26/91/22
f 26/91/23 27/90/23 29/92/23 28/93/23
f 28/93/24 29/92/24 31/94/24 30/95/24
f 30/95/25 31/94/25 33/96/25 32/97/25
f 32/97/26 33/96/26 35/98/26 34/99/26
f 34/99/27 35/98/27 37/100/27 36/101/27
f 36/101/28 37/100/28 39/102/28 38/103/28
f 38/103/29 39/102/29 41/104/29 40/105/29
f 40/105/30 41/104/30 43/106/30 42/107/30
f 42/107/31 43/106/31 45/108/31 44/109/31
f 44/109/32 45/108/32 47/110/32 46/111/32
f 46/111/33 47/110/33 49/112/33 48/113/33
f 48/113/34 49/112/34 19/114/34 18/115/34
f 18/116/2 20/117/2 22/118/2 24/119/2 26/120/2 28/121/2 30/122/2 32/123/2 34/124/2 36/125/2 38/126/2 40/127/2 42/128/2 44/129/2 46/130/2 48/131/2
f 80/132/35 137/133/35 122/134/35 50/135/35
f 78/136/36 136/137/36 137/133/36 80/132/36
f 76/138/37 135/139/37 136/137/37 78/136/37
f 74/140/38 134/141/38 135/139/38 76/138/38
f 72/142/39 133/143/39 134/141/39 74/140/39
f 70/144/40 132/145/40 133/143/40 72/142/40
f 68/146/41 131/147/41 132/145/41 70/144/41
f 66/148/42 130/149/42 131/147/42 68/146/42
f 64/150/43 129/151/43 130/149/43 66/148/43
f 62/152/44 128/153/44 129/151/44 64/150/44
f 60/154/45 127/155/45 128/153/45 62/152/45
f 58/156/46 126/157/46 127/155/46 60/154/46
f 56/158/47 125/159/47 126/157/47 58/156/47
f 54/160/48 124/161/48 125/159/48 56/158/48
f 52/162/49 123/163/49 124/161/49 54/160/49
f 50/164/50 122/165/50 123/163/50 52/162/50
usemtl Material.005
f 122/165/50 51/166/50 53/167/50 123/163/50
f 123/163/49 53/167/49 55/168/49 124/161/49
f 124/161/48 55/168/48 57/169/48 125/159/48
f 125/159/47 57/169/47 59/170/47 126/157/47
f 126/157/46 59/170/46 61/171/46 127/155/46
f 127/155/45 61/171/45 63/172/45 128/153/45
f 128/153/44 63/172/44 65/173/44 129/151/44
f 129/151/43 65/173/43 67/174/43 130/149/43
f 130/149/42 67/174/42 69/175/42 131/147/42
f 131/147/41 69/175/41 71/176/41 132/145/41
f 132/145/40 71/176/40 73/177/40 133/143/40
f 133/143/39 73/177/39 75/178/39 134/141/39
f 134/141/38 75/178/38 77/179/38 135/139/38
f 135/139/37 77/179/37 79/180/37 136/137/37
f 136/137/36 79/180/36 81/181/36 137/133/36
f 137/133/35 81/181/35 51/182/35 122/134/35
f 115/183/51 75/178/51 116/184/51
f 83/185/52 106/186/52 117/187/52 98/188/52
f 115/183/51 116/184/51 94/189/51 99/190/51
f 113/191/53 86/192/53 118/193/53 119/194/53
f 105/195/52 90/196/52 120/197/52 121/198/52
f 51/182/52 117/187/52 106/186/52
f 119/194/53 59/170/53 113/191/53
f 105/199/52 121/200/52 67/201/52
usemtl Material.002
f 101/202/33 100/203/33 96/204/33 97/205/33
f 103/206/21 102/207/21 84/208/21 85/209/21
f 105/195/26 104/210/26 89/211/26 90/196/26
f 107/212/19 106/213/19 83/214/19 82/215/19
f 77/179/31 75/178/31 116/184/31 94/189/31 95/216/31 108/217/31
f 110/218/24 109/219/24 87/220/24 88/221/24
f 112/222/29 111/223/29 92/224/29 93/225/29
f 106/186/34 101/202/34 97/205/34 83/185/34
f 113/191/22 103/206/22 85/209/22 86/192/22
f 114/226/27 105/195/27 90/196/27 91/227/27
f 100/203/32 108/217/32 95/216/32 96/204/32
f 102/207/20 107/212/20 82/215/20 84/208/20
f 104/210/25 110/218/25 88/221/25 89/211/25
f 75/178/30 73/177/30 112/222/30 93/225/30 94/189/30 116/184/30
f 109/219/23 113/191/23 86/192/23 87/220/23
f 111/223/28 114/226/28 91/227/28 92/224/28
f 71/176/28 69/175/28 114/226/28 111/223/28
f 61/171/23 59/170/23 113/191/23 109/219/23
f 65/173/25 63/172/25 110/218/25 104/210/25
f 55/168/20 53/167/20 107/212/20 102/207/20
f 79/180/32 77/179/32 108/217/32 100/203/32
f 69/175/27 67/174/27 105/195/27 114/226/27
f 59/170/22 57/169/22 103/206/22 113/191/22
f 51/182/34 81/181/34 101/202/34 106/186/34
f 73/177/29 71/176/29 111/223/29 112/222/29
f 63/172/24 61/171/24 109/219/24 110/218/24
f 53/167/19 51/166/19 106/213/19 107/212/19
f 67/174/26 65/173/26 104/210/26 105/195/26
f 57/169/21 55/168/21 102/207/21 103/206/21
f 81/181/33 79/180/33 100/203/33 101/202/33
