# Blender v3.2.0 OBJ File: 'Bazooka.blend'
# www.blender.org
mtllib Bazooka.mtl
o Cylinder
v -0.000000 0.763843 -1.500000
v 0.000000 0.800000 1.233366
v 0.062700 0.751371 -1.500000
v 0.076537 0.784776 1.233366
v 0.115855 0.715855 -1.500000
v 0.141421 0.741421 1.233366
v 0.151371 0.662700 -1.500000
v 0.184776 0.676537 1.233366
v 0.163843 0.600000 -1.500000
v 0.200000 0.600000 1.233366
v 0.151371 0.537300 -1.500000
v 0.184776 0.523463 1.233366
v 0.115855 0.484146 -1.500000
v 0.141421 0.458579 1.233366
v 0.062700 0.448629 -1.500000
v 0.076537 0.415224 1.233366
v -0.000000 0.436157 -1.500000
v -0.000000 0.400000 1.233366
v -0.062700 0.448629 -1.500000
v -0.076537 0.415224 1.233366
v -0.115855 0.484146 -1.500000
v -0.141421 0.458579 1.233366
v -0.151371 0.537300 -1.500000
v -0.184776 0.523463 1.233366
v -0.163843 0.600000 -1.500000
v -0.200000 0.600000 1.233366
v -0.151371 0.662700 -1.500000
v -0.184776 0.676537 1.233366
v -0.115855 0.715855 -1.500000
v -0.141421 0.741421 1.233366
v -0.062700 0.751371 -1.500000
v -0.076537 0.784776 1.233366
v 0.090392 0.818225 1.465045
v -0.000000 0.836205 1.465045
v 0.167022 0.767022 1.465045
v 0.218225 0.690392 1.465045
v 0.236205 0.600000 1.465045
v 0.218225 0.509608 1.465045
v 0.167022 0.432978 1.465045
v 0.090392 0.381775 1.465045
v -0.000000 0.363795 1.465045
v -0.090392 0.381775 1.465045
v -0.167022 0.432978 1.465045
v -0.218225 0.509608 1.465045
v -0.236205 0.600000 1.465045
v -0.218225 0.690392 1.465045
v -0.167022 0.767022 1.465045
v -0.090392 0.818225 1.465045
v 0.000000 0.800000 -1.500000
v 0.076537 0.784776 -1.500000
v 0.141421 0.741421 -1.500000
v 0.184776 0.676537 -1.500000
v 0.200000 0.600000 -1.500000
v 0.184776 0.523463 -1.500000
v 0.141421 0.458579 -1.500000
v 0.076537 0.415224 -1.500000
v -0.000000 0.400000 -1.500000
v -0.076537 0.415224 -1.500000
v -0.141421 0.458579 -1.500000
v -0.184776 0.523463 -1.500000
v -0.200000 0.600000 -1.500000
v -0.184776 0.676537 -1.500000
v -0.141421 0.741421 -1.500000
v -0.076537 0.784776 -1.500000
v -0.000000 0.763843 -1.135413
v 0.062700 0.751371 -1.135413
v 0.115854 0.715855 -1.135413
v 0.151371 0.662700 -1.135413
v 0.163843 0.600000 -1.135413
v 0.151371 0.537300 -1.135413
v 0.115854 0.484146 -1.135413
v 0.062700 0.448629 -1.135413
v -0.000000 0.436157 -1.135413
v -0.062700 0.448629 -1.135413
v -0.115855 0.484146 -1.135413
v -0.151371 0.537300 -1.135413
v -0.163843 0.600000 -1.135413
v -0.151371 0.662700 -1.135413
v -0.115855 0.715855 -1.135413
v -0.062700 0.751371 -1.135413
v 0.099987 0.841391 1.465045
v -0.000000 0.861280 1.465045
v 0.184753 0.784753 1.465045
v 0.241391 0.699987 1.465045
v 0.261280 0.600000 1.465045
v 0.241391 0.500013 1.465045
v 0.184753 0.415247 1.465045
v 0.099987 0.358609 1.465045
v -0.000000 0.338720 1.465045
v -0.099987 0.358609 1.465045
v -0.184753 0.415247 1.465045
v -0.241391 0.500013 1.465045
v -0.261280 0.600000 1.465045
v -0.241391 0.699987 1.465045
v -0.184753 0.784752 1.465045
v -0.099987 0.841391 1.465045
v 0.034314 0.682841 0.751017
v -0.000000 0.689667 0.751017
v 0.063404 0.663404 0.751017
v 0.082841 0.634314 0.751017
v 0.089667 0.600000 0.751017
v 0.082841 0.565686 0.751017
v 0.063404 0.536596 0.751017
v 0.034314 0.517159 0.751017
v -0.000000 0.510333 0.751017
v -0.034314 0.517159 0.751017
v -0.063404 0.536596 0.751017
v -0.082841 0.565686 0.751017
v -0.089667 0.600000 0.751017
v -0.082841 0.634314 0.751017
v -0.063404 0.663404 0.751017
v -0.034314 0.682841 0.751017
v -0.100000 -0.100000 0.100000
v -0.100000 0.100000 0.100000
v -0.100000 -0.100000 -0.100000
v -0.100000 0.100000 -0.100000
v 0.100000 -0.100000 0.100000
v 0.100000 0.100000 0.100000
v 0.100000 -0.100000 -0.100000
v 0.100000 0.100000 -0.100000
v 0.100000 0.326475 -0.100000
v 0.100000 0.326475 0.100000
v -0.100000 0.326475 0.100000
v -0.100000 0.326475 -0.100000
v -0.100000 0.326475 0.714502
v 0.100000 0.326475 0.714502
v 0.100000 0.326475 -1.065171
v -0.100000 0.326475 -1.065171
v 0.100000 0.430902 -0.100000
v 0.100000 0.430902 0.100000
v -0.100000 0.430902 0.100000
v -0.100000 0.430902 -0.100000
v 0.100000 0.430902 0.714502
v -0.100000 0.430902 -1.065171
v 0.076537 0.415224 0.714502
v -0.100000 0.430902 0.714502
v -0.076537 0.415224 0.714502
v -0.000000 0.400000 0.714502
v -0.076537 0.415224 -1.065171
v 0.076537 0.415224 -1.065171
v 0.100000 0.430902 -1.065171
v -0.000000 0.400000 -1.065171
v -0.100000 0.900000 0.300000
v -0.100000 0.900000 -0.300000
v 0.100000 0.900000 0.300000
v 0.100000 0.900000 -0.300000
v -0.033333 0.900000 -0.300000
v 0.033333 0.900000 -0.300000
v 0.033333 0.900000 0.300000
v -0.033333 0.900000 0.300000
v -0.100000 0.968575 0.300000
v -0.100000 0.968575 -0.300000
v 0.100000 0.968575 0.300000
v 0.100000 0.968575 -0.300000
v -0.033333 0.929013 -0.300000
v 0.033333 0.929013 -0.300000
v 0.033333 0.929013 0.300000
v -0.033333 0.929013 0.300000
v -0.100000 0.769098 0.300000
v -0.100000 0.769098 -0.300000
v 0.033333 0.793370 -0.300000
v 0.076537 0.784776 -0.300000
v 0.100000 0.769098 -0.300000
v 0.100000 0.769098 0.300000
v -0.033333 0.793370 0.300000
v -0.076537 0.784776 0.300000
v 0.076537 0.784776 0.300000
v 0.033333 0.793370 0.300000
v 0.000000 0.800000 0.300000
v -0.076537 0.784776 -0.300000
v -0.033333 0.793370 -0.300000
v 0.000000 0.800000 -0.300000
vt 1.000000 0.500000
vt 1.000000 1.000000
vt 0.937500 1.000000
vt 0.937500 0.500000
vt 0.875000 1.000000
vt 0.875000 0.500000
vt 0.812500 1.000000
vt 0.812500 0.500000
vt 0.750000 1.000000
vt 0.750000 0.500000
vt 0.687500 1.000000
vt 0.687500 0.500000
vt 0.625000 1.000000
vt 0.625000 0.500000
vt 0.562500 1.000000
vt 0.562500 0.500000
vt 0.500000 1.000000
vt 0.500000 0.500000
vt 0.437500 1.000000
vt 0.437500 0.500000
vt 0.375000 1.000000
vt 0.375000 0.500000
vt 0.312500 1.000000
vt 0.312500 0.500000
vt 0.250000 1.000000
vt 0.250000 0.500000
vt 0.187500 1.000000
vt 0.187500 0.500000
vt 0.125000 1.000000
vt 0.125000 0.500000
vt 0.875000 1.000000
vt 0.812500 1.000000
vt 0.062500 1.000000
vt 0.062500 0.500000
vt 0.000000 1.000000
vt 0.000000 0.500000
vt 0.562500 1.000000
vt 0.500000 1.000000
vt 1.000000 1.000000
vt 0.937500 1.000000
vt 0.250000 1.000000
vt 0.187500 1.000000
vt 0.687500 1.000000
vt 0.625000 1.000000
vt 0.375000 1.000000
vt 0.312500 1.000000
vt 0.062500 1.000000
vt 0.000000 1.000000
vt 0.750000 1.000000
vt 0.437500 1.000000
vt 0.125000 1.000000
vt 0.825240 0.431645
vt 0.750000 0.446611
vt 0.750000 0.490000
vt 0.841844 0.471731
vt 0.889025 0.389025
vt 0.919706 0.419706
vt 0.931645 0.325240
vt 0.971731 0.341844
vt 0.946612 0.250000
vt 0.990000 0.250000
vt 0.931645 0.174760
vt 0.971731 0.158156
vt 0.889025 0.110975
vt 0.919706 0.080294
vt 0.825240 0.068355
vt 0.841844 0.028269
vt 0.750000 0.053388
vt 0.750000 0.010000
vt 0.674760 0.068355
vt 0.658156 0.028269
vt 0.610975 0.110975
vt 0.580294 0.080294
vt 0.568355 0.174760
vt 0.528269 0.158156
vt 0.553389 0.250000
vt 0.510000 0.250000
vt 0.568355 0.325240
vt 0.528269 0.341844
vt 0.610975 0.389025
vt 0.580294 0.419706
vt 0.674760 0.431645
vt 0.658156 0.471731
vt 0.250000 0.466967
vt 0.333030 0.450452
vt 0.341844 0.471731
vt 0.250000 0.490000
vt 0.403419 0.403419
vt 0.419706 0.419706
vt 0.450452 0.333030
vt 0.471731 0.341844
vt 0.466967 0.250000
vt 0.490000 0.250000
vt 0.450452 0.166970
vt 0.471731 0.158156
vt 0.403419 0.096581
vt 0.419706 0.080294
vt 0.333030 0.049548
vt 0.341844 0.028269
vt 0.250000 0.033033
vt 0.250000 0.010000
vt 0.166970 0.049548
vt 0.158156 0.028269
vt 0.096581 0.096581
vt 0.080294 0.080294
vt 0.049548 0.166970
vt 0.028269 0.158156
vt 0.033033 0.250000
vt 0.010000 0.250000
vt 0.049548 0.333030
vt 0.028269 0.341844
vt 0.096581 0.403419
vt 0.080294 0.419706
vt 0.166970 0.450452
vt 0.158156 0.471731
vt 0.585101 0.978257
vt 0.585101 0.865849
vt 0.585101 0.829264
vt 0.585101 0.652711
vt 0.562500 0.652711
vt 0.562500 0.978257
vt 0.500000 0.652711
vt 0.500000 0.978257
vt 0.437500 0.652711
vt 0.437500 0.978257
vt 0.414899 0.652711
vt 0.414899 0.829264
vt 0.414899 0.865849
vt 0.414899 0.978257
vt 0.791667 0.500000
vt 0.875000 0.500000
vt 0.875000 0.750000
vt 0.791667 0.750000
vt 0.625000 0.500000
vt 0.708333 0.500000
vt 0.708333 0.750000
vt 0.625000 0.750000
vt 0.972780 0.829264
vt 1.000000 0.829264
vt 1.000000 0.719510
vt 0.972780 0.719510
vt 0.937500 0.719510
vt 0.937500 0.829264
vt 0.914899 0.719510
vt 0.914899 0.829264
vt 0.085101 0.829264
vt 0.085101 0.719510
vt 0.062500 0.719510
vt 0.062500 0.829264
vt 0.000000 0.829264
vt 0.027220 0.829264
vt 0.027220 0.719510
vt 0.000000 0.719510
vt 0.375000 0.000000
vt 0.625000 0.000000
vt 0.625000 0.250000
vt 0.375000 0.250000
vt 0.625000 0.500000
vt 0.375000 0.500000
vt 0.625000 0.750000
vt 0.375000 0.750000
vt 0.625000 1.000000
vt 0.375000 1.000000
vt 0.125000 0.500000
vt 0.125000 0.750000
vt 0.625000 0.750000
vt 0.625000 0.750000
vt 0.625000 0.500000
vt 0.625000 0.500000
vt 0.625000 0.250000
vt 0.625000 0.000000
vt 0.625000 0.000000
vt 0.625000 0.250000
vt 0.625000 0.750000
vt 0.625000 0.750000
vt 0.625000 0.250000
vt 0.625000 0.250000
vt 0.625000 1.000000
vt 0.625000 1.000000
vt 0.625000 1.000000
vt 0.625000 0.779329
vt 0.625000 0.875000
vt 0.625000 0.970671
vt 0.625000 0.000000
vt 0.625000 0.000000
vt 0.625000 0.500000
vt 0.625000 0.279329
vt 0.625000 0.375000
vt 0.625000 0.470671
vt 0.625000 0.500000
vt 0.625000 0.000000
vt 0.625000 0.250000
vt 0.461373 0.250000
vt 0.461373 0.000000
vt 0.625000 0.416667
vt 0.461373 0.500000
vt 0.480970 0.470671
vt 0.491712 0.416667
vt 0.461373 0.750000
vt 0.491712 0.916667
vt 0.625000 0.916667
vt 0.625000 1.000000
vt 0.461373 1.000000
vt 0.480970 0.970671
vt 0.625000 0.833333
vt 0.491712 0.833333
vt 0.480970 0.779329
vt 0.500000 0.875000
vt 0.625000 0.333333
vt 0.491712 0.333333
vt 0.480970 0.279329
vt 0.500000 0.375000
vt 0.625000 0.750000
vt 0.625000 0.500000
vt 0.625000 0.250000
vt 0.625000 0.000000
vt 0.791667 0.500000
vt 0.791667 0.750000
vt 0.708333 0.750000
vt 0.708333 0.500000
vt 0.000000 0.000000
vt 0.000000 0.000000
vt 0.000000 0.000000
vt 0.000000 0.000000
vt 0.000000 0.000000
vt 0.000000 0.000000
vt 0.000000 0.000000
vt 0.000000 0.000000
vt 0.000000 0.000000
vt 0.000000 0.000000
vt 0.000000 0.000000
vt 0.000000 0.000000
vt 0.000000 0.000000
vt 0.000000 0.000000
vt 0.000000 0.000000
vt 0.000000 0.000000
vt 0.946612 0.250000
vt 0.931645 0.325240
vt 0.096581 0.403419
vt 0.166970 0.450452
vt 0.750000 0.446611
vt 0.825240 0.431645
vt 0.889025 0.389025
vt 0.931645 0.174760
vt 0.889025 0.110975
vt 0.825240 0.068355
vt 0.750000 0.053388
vt 0.674760 0.068355
vt 0.610975 0.110975
vt 0.568355 0.174760
vt 0.553389 0.250000
vt 0.568355 0.325240
vt 0.610975 0.389025
vt 0.674760 0.431645
vt 0.333030 0.450452
vt 0.250000 0.466967
vt 0.049548 0.333030
vt 0.033033 0.250000
vt 0.049548 0.166970
vt 0.096581 0.096581
vt 0.166970 0.049548
vt 0.250000 0.033033
vt 0.333030 0.049548
vt 0.403419 0.096581
vt 0.450452 0.166970
vt 0.466967 0.250000
vt 0.450452 0.333030
vt 0.403419 0.403419
vn 0.1951 0.9808 0.0000
vn 0.5556 0.8315 0.0000
vn 0.8315 0.5556 0.0000
vn 0.9808 0.1951 0.0000
vn 0.9808 -0.1951 -0.0000
vn 0.8315 -0.5556 -0.0000
vn 0.5556 -0.8315 -0.0000
vn 0.1951 -0.9808 -0.0000
vn -0.1951 -0.9808 -0.0000
vn -0.5556 -0.8315 -0.0000
vn -0.8315 -0.5556 -0.0000
vn -0.9808 -0.1951 -0.0000
vn -0.9808 0.1951 0.0000
vn -0.8315 0.5556 0.0000
vn 0.8048 0.5378 -0.2511
vn -0.5556 0.8315 0.0000
vn -0.1951 0.9808 0.0000
vn 0.1888 -0.9494 -0.2511
vn 0.1888 0.9494 -0.2511
vn -0.9494 0.1888 -0.2511
vn 0.8048 -0.5378 -0.2511
vn -0.8048 -0.5378 -0.2511
vn -0.1888 0.9494 -0.2511
vn 0.9494 0.1888 -0.2511
vn -0.1888 -0.9494 -0.2511
vn -0.8048 0.5378 -0.2511
vn 0.5378 0.8048 -0.2511
vn 0.5378 -0.8048 -0.2511
vn -0.9494 -0.1888 -0.2511
vn 0.9494 -0.1888 -0.2511
vn -0.5378 -0.8048 -0.2511
vn -0.5378 0.8048 -0.2511
vn 0.0000 0.0000 -1.0000
vn 0.0000 0.0000 1.0000
vn 0.0000 1.0000 0.0000
vn -1.0000 0.0000 0.0000
vn 1.0000 -0.0000 0.0000
vn 0.0000 -1.0000 0.0000
vn 0.5103 -0.8600 0.0000
vn -0.5103 -0.8600 0.0000
vn 0.5446 -0.8151 0.1973
vn -0.1913 0.9615 0.1973
vn -0.1913 -0.9615 0.1973
vn 0.1913 -0.9615 0.1973
vn 0.1913 0.9615 0.1973
vn -0.5446 -0.8151 0.1973
vn 0.5446 0.8151 0.1973
vn -0.8151 -0.5446 0.1973
vn 0.8151 0.5446 0.1973
vn -0.9615 -0.1913 0.1973
vn 0.9615 0.1913 0.1973
vn -0.9615 0.1913 0.1973
vn 0.9615 -0.1913 0.1973
vn -0.8151 0.5446 0.1973
vn 0.8151 -0.5446 0.1973
vn -0.5446 0.8151 0.1973
usemtl Material.001
s off
f 49/1/1 2/2/1 4/3/1 50/4/1
f 50/4/2 4/3/2 6/5/2 51/6/2
f 51/6/3 6/5/3 8/7/3 52/8/3
f 52/8/4 8/7/4 10/9/4 53/10/4
f 53/10/5 10/9/5 12/11/5 54/12/5
f 54/12/6 12/11/6 14/13/6 55/14/6
f 55/14/7 14/13/7 16/15/7 56/16/7
f 56/16/8 16/15/8 18/17/8 57/18/8
f 57/18/9 18/17/9 20/19/9 58/20/9
f 58/20/10 20/19/10 22/21/10 59/22/10
f 59/22/11 22/21/11 24/23/11 60/24/11
f 60/24/12 24/23/12 26/25/12 61/26/12
f 61/26/13 26/25/13 28/27/13 62/28/13
f 62/28/14 28/27/14 30/29/14 63/30/14
f 8/7/15 6/5/15 83/31/15 84/32/15
f 63/30/16 30/29/16 32/33/16 64/34/16
f 64/34/17 32/33/17 2/35/17 49/36/17
f 18/17/18 16/15/18 88/37/18 89/38/18
f 4/3/19 2/2/19 82/39/19 81/40/19
f 28/27/20 26/25/20 93/41/20 94/42/20
f 14/13/21 12/11/21 86/43/21 87/44/21
f 24/23/22 22/21/22 91/45/22 92/46/22
f 2/35/23 32/33/23 96/47/23 82/48/23
f 10/9/24 8/7/24 84/32/24 85/49/24
f 20/19/25 18/17/25 89/38/25 90/50/25
f 30/29/26 28/27/26 94/42/26 95/51/26
f 6/5/27 4/3/27 81/40/27 83/31/27
f 16/15/28 14/13/28 87/44/28 88/37/28
f 26/25/29 24/23/29 92/46/29 93/41/29
f 12/11/30 10/9/30 85/49/30 86/43/30
f 22/21/31 20/19/31 90/50/31 91/45/31
f 32/33/32 30/29/32 95/51/32 96/47/32
f 3/52/33 1/53/33 49/54/33 50/55/33
f 5/56/33 3/52/33 50/55/33 51/57/33
f 7/58/33 5/56/33 51/57/33 52/59/33
f 9/60/33 7/58/33 52/59/33 53/61/33
f 11/62/33 9/60/33 53/61/33 54/63/33
f 13/64/33 11/62/33 54/63/33 55/65/33
f 15/66/33 13/64/33 55/65/33 56/67/33
f 17/68/33 15/66/33 56/67/33 57/69/33
f 19/70/33 17/68/33 57/69/33 58/71/33
f 21/72/33 19/70/33 58/71/33 59/73/33
f 23/74/33 21/72/33 59/73/33 60/75/33
f 25/76/33 23/74/33 60/75/33 61/77/33
f 27/78/33 25/76/33 61/77/33 62/79/33
f 29/80/33 27/78/33 62/79/33 63/81/33
f 31/82/33 29/80/33 63/81/33 64/83/33
f 1/53/33 31/82/33 64/83/33 49/54/33
f 34/84/34 33/85/34 81/86/34 82/87/34
f 33/85/34 35/88/34 83/89/34 81/86/34
f 35/88/34 36/90/34 84/91/34 83/89/34
f 36/90/34 37/92/34 85/93/34 84/91/34
f 37/92/34 38/94/34 86/95/34 85/93/34
f 38/94/34 39/96/34 87/97/34 86/95/34
f 39/96/34 40/98/34 88/99/34 87/97/34
f 40/98/34 41/100/34 89/101/34 88/99/34
f 41/100/34 42/102/34 90/103/34 89/101/34
f 42/102/34 43/104/34 91/105/34 90/103/34
f 43/104/34 44/106/34 92/107/34 91/105/34
f 44/106/34 45/108/34 93/109/34 92/107/34
f 45/108/34 46/110/34 94/111/34 93/109/34
f 46/110/34 47/112/34 95/113/34 94/111/34
f 47/112/34 48/114/34 96/115/34 95/113/34
f 48/114/34 34/84/34 82/87/34 96/115/34
f 133/116/16 130/117/16 129/118/16 141/119/16 140/120/16 135/121/16
f 142/122/17 138/123/17 135/121/17 140/120/17
f 139/124/1 137/125/1 138/123/1 142/122/1
f 134/126/2 132/127/2 131/128/2 136/129/2 137/125/2 139/124/2
f 147/130/35 144/131/35 143/132/35 150/133/35
f 146/134/35 148/135/35 149/136/35 145/137/35
f 168/138/9 169/139/9 172/140/9 161/141/9 162/142/9 167/143/9
f 162/142/10 163/144/10 164/145/10 167/143/10
f 159/146/7 160/147/7 170/148/7 166/149/7
f 169/150/8 165/151/8 166/149/8 170/148/8 171/152/8 172/153/8
usemtl Material.002
f 113/154/36 114/155/36 116/156/36 115/157/36
f 115/157/33 116/156/33 120/158/33 119/159/33
f 119/159/37 120/158/37 118/160/37 117/161/37
f 117/161/34 118/160/34 114/162/34 113/163/34
f 115/164/38 119/159/38 117/161/38 113/165/38
f 130/166/37 122/167/37 121/168/37 129/169/37
f 124/170/36 123/171/36 131/172/36 132/173/36
f 133/174/37 126/175/37 122/167/37 130/166/37
f 128/176/36 124/170/36 132/173/36 134/177/36
f 120/158/33 116/156/33 124/170/33 121/168/33
f 114/162/34 118/160/34 122/167/34 123/178/34
f 116/156/36 114/155/36 123/171/36 124/170/36
f 118/160/37 120/158/37 121/168/37 122/167/37
f 136/179/34 125/180/34 126/175/34 133/174/34 135/181/34 138/182/34 137/183/34
f 123/171/36 125/184/36 136/185/36 131/172/36
f 123/178/38 122/167/38 126/175/38 125/180/38
f 127/186/33 128/176/33 134/177/33 139/187/33 142/188/33 140/189/33 141/190/33
f 121/168/38 124/170/38 128/176/38 127/186/38
f 129/169/37 121/168/37 127/186/37 141/190/37
f 143/191/36 144/192/36 160/193/36 159/194/36
f 148/195/33 146/134/33 163/196/33 162/197/33 161/198/33
f 163/196/37 146/134/37 145/137/37 164/199/37
f 165/200/34 150/201/34 143/202/34 159/203/34 166/204/34
f 148/135/35 147/130/35 150/133/35 149/136/35
f 164/199/34 145/137/34 149/205/34 168/206/34 167/207/34
f 168/206/34 149/205/34 150/201/34 165/200/34 169/208/34
f 144/192/33 147/209/33 171/210/33 170/211/33 160/193/33
f 147/209/33 148/195/33 161/198/33 172/212/33 171/210/33
f 146/134/36 145/137/36 153/213/36 154/214/36
f 143/191/37 144/192/37 152/215/37 151/216/37
f 150/133/37 147/130/37 155/217/37 158/218/37
f 148/135/36 149/136/36 157/219/36 156/220/36
f 153/213/39 157/219/39 156/220/39 154/214/39
f 151/216/40 152/215/40 155/217/40 158/218/40
f 152/221/34 144/222/34 147/223/34 155/224/34
f 156/225/34 148/226/34 146/227/34 154/228/34
f 153/229/33 145/230/33 149/231/33 157/232/33
f 158/233/33 150/234/33 143/235/33 151/236/33
usemtl Material.003
f 7/58/12 9/60/12 69/237/12 68/238/12
f 48/114/41 47/112/41 111/239/41 112/240/41
f 65/241/33 66/242/33 67/243/33 68/238/33 69/237/33 70/244/33 71/245/33 72/246/33 73/247/33 74/248/33 75/249/33 76/250/33 77/251/33 78/252/33 79/253/33 80/254/33
f 23/74/4 25/76/4 77/251/4 76/250/4
f 9/60/13 11/62/13 70/244/13 69/237/13
f 25/76/5 27/78/5 78/252/5 77/251/5
f 11/62/14 13/64/14 71/245/14 70/244/14
f 27/78/6 29/80/6 79/253/6 78/252/6
f 13/64/16 15/66/16 72/246/16 71/245/16
f 29/80/7 31/82/7 80/254/7 79/253/7
f 15/66/17 17/68/17 73/247/17 72/246/17
f 1/53/9 3/52/9 66/242/9 65/241/9
f 31/82/8 1/53/8 65/241/8 80/254/8
f 17/68/1 19/70/1 74/248/1 73/247/1
f 3/52/10 5/56/10 67/243/10 66/242/10
f 19/70/2 21/72/2 75/249/2 74/248/2
f 5/56/11 7/58/11 68/238/11 67/243/11
f 21/72/3 23/74/3 76/250/3 75/249/3
f 97/255/34 98/256/34 112/240/34 111/239/34 110/257/34 109/258/34 108/259/34 107/260/34 106/261/34 105/262/34 104/263/34 103/264/34 102/265/34 101/266/34 100/267/34 99/268/34
f 41/100/42 40/98/42 104/263/42 105/262/42
f 33/85/43 34/84/43 98/256/43 97/255/43
f 34/84/44 48/114/44 112/240/44 98/256/44
f 42/102/45 41/100/45 105/262/45 106/261/45
f 35/88/46 33/85/46 97/255/46 99/268/46
f 43/104/47 42/102/47 106/261/47 107/260/47
f 36/90/48 35/88/48 99/268/48 100/267/48
f 44/106/49 43/104/49 107/260/49 108/259/49
f 37/92/50 36/90/50 100/267/50 101/266/50
f 45/108/51 44/106/51 108/259/51 109/258/51
f 38/94/52 37/92/52 101/266/52 102/265/52
f 46/110/53 45/108/53 109/258/53 110/257/53
f 39/96/54 38/94/54 102/265/54 103/264/54
f 47/112/55 46/110/55 110/257/55 111/239/55
f 40/98/56 39/96/56 103/264/56 104/263/56
