# Blender v3.2.0 OBJ File: 'Shovel.blend'
# www.blender.org
mtllib Shovel.mtl
o Sphere_Sphere.001
v 0.000000 -0.038268 -0.064672
v 0.000000 -0.092388 -0.026788
v 0.026788 0.000000 -0.064672
v 0.024749 -0.038268 -0.059749
v 0.018942 -0.070710 -0.045730
v 0.010251 -0.092388 -0.024749
v 0.049497 0.000000 -0.049497
v 0.045730 -0.038268 -0.045730
v 0.035000 -0.070710 -0.035000
v 0.018942 -0.092388 -0.018942
v 0.064672 0.000000 -0.026788
v 0.059749 -0.038268 -0.024749
v 0.045730 -0.070710 -0.018942
v 0.024749 -0.092388 -0.010251
v 0.070000 0.000000 0.000000
v 0.064672 -0.038268 0.000000
v 0.049497 -0.070710 0.000000
v 0.026788 -0.092388 0.000000
v 0.064672 0.000000 0.026788
v 0.059749 -0.038268 0.024749
v 0.045730 -0.070710 0.018942
v 0.024749 -0.092388 0.010251
v 0.049497 0.000000 0.049497
v 0.045730 -0.038268 0.045730
v 0.035000 -0.070710 0.035000
v 0.018942 -0.092388 0.018942
v 0.026788 0.000000 0.064672
v 0.024749 -0.038268 0.059749
v 0.018942 -0.070710 0.045730
v 0.010251 -0.092388 0.024749
v -0.000000 0.000000 0.070000
v -0.000000 -0.038268 0.064672
v -0.000000 -0.070710 0.049497
v -0.000000 -0.092388 0.026788
v -0.026788 0.000000 0.064672
v -0.024749 -0.038268 0.059749
v -0.018942 -0.070710 0.045730
v -0.010251 -0.092388 0.024749
v -0.049497 0.000000 0.049497
v -0.045730 -0.038268 0.045730
v -0.035000 -0.070710 0.035000
v -0.018942 -0.092388 0.018942
v 0.000000 -0.100000 0.000000
v -0.064672 0.000000 0.026788
v -0.059749 -0.038268 0.024749
v -0.045730 -0.070710 0.018942
v -0.024749 -0.092388 0.010251
v -0.070000 0.000000 -0.000000
v -0.064672 -0.038268 -0.000000
v -0.049497 -0.070710 -0.000000
v -0.026788 -0.092388 -0.000000
v -0.064672 0.000000 -0.026788
v -0.059749 -0.038268 -0.024749
v -0.045730 -0.070710 -0.018942
v -0.024749 -0.092388 -0.010251
v -0.049497 0.000000 -0.049497
v -0.045730 -0.038268 -0.045730
v -0.035000 -0.070710 -0.035000
v -0.018942 -0.092388 -0.018942
v -0.026788 0.000000 -0.064672
v -0.024749 -0.038268 -0.059749
v -0.018942 -0.070710 -0.045730
v -0.010251 -0.092388 -0.024749
v 0.000000 0.000000 -0.070000
v 0.000000 -0.070710 -0.049497
v 0.026788 1.701126 -0.064672
v 0.049497 1.701126 -0.049497
v 0.064672 1.701126 -0.026788
v 0.070000 1.701126 0.000000
v 0.064672 1.701126 0.026788
v 0.049497 1.701126 0.049497
v 0.026788 1.701126 0.064672
v -0.000000 1.701126 0.070000
v -0.026788 1.701126 0.064672
v -0.049497 1.701126 0.049497
v -0.064672 1.701126 0.026788
v -0.070000 1.701126 -0.000000
v -0.064672 1.701126 -0.026788
v -0.049497 1.701126 -0.049497
v -0.026788 1.701126 -0.064672
v 0.000000 1.701126 -0.070000
vt 0.750000 0.125000
vt 0.750000 0.250000
vt 0.687500 0.250000
vt 0.687500 0.125000
vt 0.750000 0.375000
vt 0.750000 0.500000
vt 0.687500 0.500000
vt 0.687500 0.375000
vt 0.718750 0.000000
vt 0.656250 0.000000
vt 0.625000 0.125000
vt 0.625000 0.375000
vt 0.625000 0.250000
vt 0.625000 0.500000
vt 0.593750 0.000000
vt 0.562500 0.125000
vt 0.562500 0.375000
vt 0.562500 0.250000
vt 0.562500 0.500000
vt 0.500000 0.250000
vt 0.500000 0.125000
vt 0.500000 0.500000
vt 0.500000 0.375000
vt 0.531250 0.000000
vt 0.437500 0.250000
vt 0.437500 0.125000
vt 0.437500 0.500000
vt 0.437500 0.375000
vt 0.468750 0.000000
vt 0.406250 0.000000
vt 0.375000 0.125000
vt 0.375000 0.375000
vt 0.375000 0.250000
vt 0.375000 0.500000
vt 0.312500 0.375000
vt 0.312500 0.250000
vt 0.312500 0.125000
vt 0.312500 0.500000
vt 0.343750 0.000000
vt 0.250000 0.250000
vt 0.250000 0.125000
vt 0.250000 0.500000
vt 0.250000 0.375000
vt 0.281250 0.000000
vt 0.187500 0.500000
vt 0.187500 0.375000
vt 0.218750 0.000000
vt 0.187500 0.125000
vt 0.187500 0.250000
vt 0.156250 0.000000
vt 0.125000 0.125000
vt 0.125000 0.375000
vt 0.125000 0.250000
vt 0.125000 0.500000
vt 0.062500 0.250000
vt 0.062500 0.125000
vt 0.062500 0.500000
vt 0.062500 0.375000
vt 0.093750 0.000000
vt 0.000000 0.250000
vt 0.000000 0.125000
vt 0.000000 0.500000
vt 0.000000 0.375000
vt 0.031250 0.000000
vt 0.968750 0.000000
vt 1.000000 0.125000
vt 0.937500 0.125000
vt 1.000000 0.250000
vt 1.000000 0.375000
vt 0.937500 0.375000
vt 0.937500 0.250000
vt 1.000000 0.500000
vt 0.937500 0.500000
vt 0.906250 0.000000
vt 0.875000 0.125000
vt 0.875000 0.375000
vt 0.875000 0.250000
vt 0.875000 0.500000
vt 0.812500 0.250000
vt 0.812500 0.125000
vt 0.812500 0.500000
vt 0.812500 0.375000
vt 0.843750 0.000000
vt 0.781250 0.000000
vt 0.125000 0.500000
vt 0.062500 0.500000
vt 0.250000 0.500000
vt 0.187500 0.500000
vt 0.875000 0.500000
vt 0.812500 0.500000
vt 0.937500 0.500000
vt 1.000000 0.500000
vt 0.375000 0.500000
vt 0.312500 0.500000
vt 0.000000 0.500000
vt 0.750000 0.500000
vt 0.687500 0.500000
vt 0.437500 0.500000
vt 0.500000 0.500000
vt 0.562500 0.500000
vt 0.625000 0.500000
vn 0.1361 -0.7166 -0.6841
vn 0.1933 -0.1353 -0.9718
vn 0.0543 -0.9605 -0.2729
vn 0.1773 -0.4170 -0.8915
vn 0.1546 -0.9605 -0.2314
vn 0.5050 -0.4170 -0.7557
vn 0.3875 -0.7166 -0.5799
vn 0.5505 -0.1353 -0.8238
vn 0.2314 -0.9605 -0.1546
vn 0.7557 -0.4170 -0.5050
vn 0.5799 -0.7166 -0.3875
vn 0.8238 -0.1353 -0.5505
vn 0.6841 -0.7166 -0.1361
vn 0.9718 -0.1353 -0.1933
vn 0.2729 -0.9605 -0.0543
vn 0.8915 -0.4170 -0.1773
vn 0.6841 -0.7166 0.1361
vn 0.9718 -0.1353 0.1933
vn 0.2729 -0.9605 0.0543
vn 0.8915 -0.4170 0.1773
vn 0.2314 -0.9605 0.1546
vn 0.7557 -0.4170 0.5050
vn 0.5799 -0.7166 0.3875
vn 0.8238 -0.1353 0.5505
vn 0.5050 -0.4170 0.7557
vn 0.3875 -0.7166 0.5799
vn 0.5505 -0.1353 0.8238
vn 0.1546 -0.9605 0.2314
vn 0.1361 -0.7166 0.6841
vn 0.1933 -0.1353 0.9718
vn 0.0543 -0.9605 0.2729
vn 0.1773 -0.4170 0.8915
vn -0.1933 -0.1353 0.9718
vn -0.0543 -0.9605 0.2729
vn -0.1773 -0.4170 0.8915
vn -0.1361 -0.7166 0.6841
vn -0.1546 -0.9605 0.2314
vn -0.5050 -0.4170 0.7557
vn -0.3875 -0.7166 0.5799
vn -0.5505 -0.1353 0.8238
vn -0.5799 -0.7166 0.3875
vn -0.8238 -0.1353 0.5505
vn -0.2314 -0.9605 0.1546
vn -0.7557 -0.4170 0.5050
vn -0.6841 -0.7166 0.1361
vn -0.9718 -0.1353 0.1933
vn -0.2729 -0.9605 0.0543
vn -0.8915 -0.4170 0.1773
vn -0.2729 -0.9605 -0.0543
vn -0.8915 -0.4170 -0.1773
vn -0.6841 -0.7166 -0.1361
vn -0.9718 -0.1353 -0.1933
vn -0.2314 -0.9605 -0.1546
vn -0.7557 -0.4170 -0.5050
vn -0.5799 -0.7166 -0.3875
vn -0.8238 -0.1353 -0.5505
vn -0.3875 -0.7166 -0.5799
vn -0.5505 -0.1353 -0.8238
vn -0.1546 -0.9605 -0.2314
vn -0.5050 -0.4170 -0.7557
vn -0.1361 -0.7166 -0.6841
vn -0.1933 -0.1353 -0.9718
vn -0.0543 -0.9605 -0.2729
vn -0.1773 -0.4170 -0.8915
vn -0.8315 0.0000 0.5556
vn -0.1951 0.0000 0.9808
vn -0.5556 0.0000 -0.8315
vn -0.8315 0.0000 -0.5556
vn -0.9808 0.0000 -0.1951
vn 0.5556 0.0000 0.8315
vn -0.9808 0.0000 0.1951
vn 0.1951 0.0000 -0.9808
vn 0.1951 0.0000 0.9808
vn -0.1951 0.0000 -0.9808
vn -0.5556 0.0000 0.8315
vn 0.8315 0.0000 0.5556
vn 0.9808 0.0000 0.1951
vn 0.9808 0.0000 -0.1951
vn 0.8315 0.0000 -0.5556
vn 0.5556 0.0000 -0.8315
vn 0.0000 1.0000 0.0000
usemtl Material.002
s off
f 2/1/1 65/2/1 5/3/1 6/4/1
f 1/5/2 64/6/2 3/7/2 4/8/2
f 43/9/3 2/1/3 6/4/3
f 65/2/4 1/5/4 4/8/4 5/3/4
f 43/10/5 6/4/5 10/11/5
f 5/3/6 4/8/6 8/12/6 9/13/6
f 6/4/7 5/3/7 9/13/7 10/11/7
f 4/8/8 3/7/8 7/14/8 8/12/8
f 43/15/9 10/11/9 14/16/9
f 9/13/10 8/12/10 12/17/10 13/18/10
f 10/11/11 9/13/11 13/18/11 14/16/11
f 8/12/12 7/14/12 11/19/12 12/17/12
f 14/16/13 13/18/13 17/20/13 18/21/13
f 12/17/14 11/19/14 15/22/14 16/23/14
f 43/24/15 14/16/15 18/21/15
f 13/18/16 12/17/16 16/23/16 17/20/16
f 18/21/17 17/20/17 21/25/17 22/26/17
f 16/23/18 15/22/18 19/27/18 20/28/18
f 43/29/19 18/21/19 22/26/19
f 17/20/20 16/23/20 20/28/20 21/25/20
f 43/30/21 22/26/21 26/31/21
f 21/25/22 20/28/22 24/32/22 25/33/22
f 22/26/23 21/25/23 25/33/23 26/31/23
f 20/28/24 19/27/24 23/34/24 24/32/24
f 25/33/25 24/32/25 28/35/25 29/36/25
f 26/31/26 25/33/26 29/36/26 30/37/26
f 24/32/27 23/34/27 27/38/27 28/35/27
f 43/39/28 26/31/28 30/37/28
f 30/37/29 29/36/29 33/40/29 34/41/29
f 28/35/30 27/38/30 31/42/30 32/43/30
f 43/44/31 30/37/31 34/41/31
f 29/36/32 28/35/32 32/43/32 33/40/32
f 32/43/33 31/42/33 35/45/33 36/46/33
f 43/47/34 34/41/34 38/48/34
f 33/40/35 32/43/35 36/46/35 37/49/35
f 34/41/36 33/40/36 37/49/36 38/48/36
f 43/50/37 38/48/37 42/51/37
f 37/49/38 36/46/38 40/52/38 41/53/38
f 38/48/39 37/49/39 41/53/39 42/51/39
f 36/46/40 35/45/40 39/54/40 40/52/40
f 42/51/41 41/53/41 46/55/41 47/56/41
f 40/52/42 39/54/42 44/57/42 45/58/42
f 43/59/43 42/51/43 47/56/43
f 41/53/44 40/52/44 45/58/44 46/55/44
f 47/56/45 46/55/45 50/60/45 51/61/45
f 45/58/46 44/57/46 48/62/46 49/63/46
f 43/64/47 47/56/47 51/61/47
f 46/55/48 45/58/48 49/63/48 50/60/48
f 43/65/49 51/66/49 55/67/49
f 50/68/50 49/69/50 53/70/50 54/71/50
f 51/66/51 50/68/51 54/71/51 55/67/51
f 49/69/52 48/72/52 52/73/52 53/70/52
f 43/74/53 55/67/53 59/75/53
f 54/71/54 53/70/54 57/76/54 58/77/54
f 55/67/55 54/71/55 58/77/55 59/75/55
f 53/70/56 52/73/56 56/78/56 57/76/56
f 59/75/57 58/77/57 62/79/57 63/80/57
f 57/76/58 56/78/58 60/81/58 61/82/58
f 43/83/59 59/75/59 63/80/59
f 58/77/60 57/76/60 61/82/60 62/79/60
f 63/80/61 62/79/61 65/2/61 2/1/61
f 61/82/62 60/81/62 64/6/62 1/5/62
f 43/84/63 63/80/63 2/1/63
f 62/79/64 61/82/64 1/5/64 65/2/64
f 44/57/65 39/54/65 75/85/65 76/86/65
f 35/45/66 31/42/66 73/87/66 74/88/66
f 60/81/67 56/78/67 79/89/67 80/90/67
f 56/78/68 52/73/68 78/91/68 79/89/68
f 52/73/69 48/72/69 77/92/69 78/91/69
f 27/38/70 23/34/70 71/93/70 72/94/70
f 48/62/71 44/57/71 76/86/71 77/95/71
f 3/7/72 64/6/72 81/96/72 66/97/72
f 31/42/73 27/38/73 72/94/73 73/87/73
f 64/6/74 60/81/74 80/90/74 81/96/74
f 39/54/75 35/45/75 74/88/75 75/85/75
f 23/34/76 19/27/76 70/98/76 71/93/76
f 19/27/77 15/22/77 69/99/77 70/98/77
f 15/22/78 11/19/78 68/100/78 69/99/78
f 11/19/79 7/14/79 67/101/79 68/100/79
f 7/14/80 3/7/80 66/97/80 67/101/80
f 67/101/81 66/97/81 81/96/81 80/90/81 79/89/81 78/91/81 77/95/81 76/86/81 75/85/81 74/88/81 73/87/81 72/94/81 71/93/81 70/98/81 69/99/81 68/100/81
o Cube_Cube.002
v -0.200000 1.690000 0.040000
v -0.200000 1.690000 -0.040000
v 0.200000 1.690000 0.040000
v 0.200000 1.690000 -0.040000
v -0.200000 1.690000 0.000000
v 0.200000 1.690000 0.000000
v 0.000000 1.610000 -0.120000
v 0.000000 1.770000 -0.120000
v 0.084853 1.610000 -0.084853
v 0.084853 1.770000 -0.084853
v 0.120000 1.610000 0.000000
v 0.120000 1.770000 0.000000
v 0.084853 1.610000 0.084853
v 0.084853 1.770000 0.084853
v -0.000000 1.610000 0.120000
v -0.000000 1.770000 0.120000
v -0.084853 1.610000 0.084853
v -0.084853 1.770000 0.084853
v -0.120000 1.610000 -0.000000
v -0.120000 1.770000 -0.000000
v -0.084853 1.610000 -0.084853
v -0.084853 1.770000 -0.084853
v -0.092853 2.043698 0.016457
v -0.101947 2.141307 0.012318
v -0.186333 2.048477 0.010511
v -0.200000 1.970000 0.020276
v -0.113267 2.071090 0.014375
v -0.171160 2.029318 0.016303
v -0.152728 2.100692 0.014298
v -0.195997 2.009554 0.014765
v -0.146427 2.008154 0.018268
v -0.186333 2.048477 -0.010511
v -0.136618 2.043698 -0.016457
v -0.200000 1.970000 -0.020276
v -0.170063 2.051888 -0.014199
v -0.185796 2.015835 -0.016961
v -0.168309 2.008154 -0.018268
v -0.195997 2.009554 -0.014765
v 0.186333 2.048477 0.010511
v 0.136618 2.043698 0.016457
v 0.200000 1.970000 0.020276
v 0.170063 2.051888 0.014199
v 0.185796 2.015835 0.016961
v 0.168309 2.008154 0.018268
v 0.195997 2.009554 0.014765
v 0.092853 2.043698 -0.016457
v 0.101947 2.141307 -0.012318
v 0.186333 2.048477 -0.010511
v 0.200000 1.970000 -0.020276
v 0.113267 2.071090 -0.014375
v 0.171160 2.029318 -0.016303
v 0.152728 2.100692 -0.014298
v 0.195997 2.009554 -0.014765
v 0.146427 2.008154 -0.018268
v -0.200000 1.970000 -0.000000
v -0.186333 2.048477 0.004755
v -0.186333 2.048477 -0.004755
v -0.195997 2.009554 0.002377
v -0.194860 2.015733 0.000000
v -0.186333 2.048477 -0.000000
v -0.195997 2.009554 -0.002377
v 0.200000 1.970000 -0.000000
v 0.186333 2.048477 -0.004755
v 0.186333 2.048477 0.004755
v 0.195997 2.009554 -0.002377
v 0.194860 2.015733 -0.000000
v 0.186333 2.048477 -0.000000
v 0.195997 2.009554 0.002377
v -0.159434 2.124207 -0.006481
v -0.159434 2.124207 0.006481
v -0.071690 2.226490 0.003492
v -0.003987 2.226490 -0.003492
v -0.085637 2.187226 -0.007560
v -0.150231 2.150115 -0.000000
v -0.104329 2.219752 -0.000750
v -0.124150 2.181149 0.005961
v -0.037838 2.240448 -0.000000
v -0.056021 2.214939 -0.004689
v -0.131123 2.161517 -0.007996
v 0.003987 2.226490 0.003492
v 0.085637 2.187226 0.007560
v 0.159434 2.124207 0.006481
v 0.159434 2.124207 -0.006481
v 0.071690 2.226490 -0.003492
v 0.056021 2.214939 0.004689
v 0.104329 2.219752 0.000750
v 0.131123 2.161517 0.007996
v 0.150231 2.150115 -0.000000
v 0.124150 2.181149 -0.005961
v 0.037838 2.240448 0.000000
v -0.200000 1.830000 0.032962
v -0.200000 1.830000 -0.000000
v 0.200000 1.830000 0.032962
v -0.200000 1.830000 -0.032962
v 0.200000 1.830000 -0.032962
v 0.200000 1.830000 -0.000000
v 0.056692 1.798908 -0.056692
v -0.000000 1.798908 -0.080174
v 0.080174 1.798908 0.000000
v 0.056692 1.798908 0.056692
v -0.000000 1.798908 0.080174
v -0.056692 1.798908 0.056692
v -0.080174 1.798908 -0.000000
v -0.056692 1.798908 -0.056692
vt 0.484375 0.250000
vt 0.593750 0.250000
vt 0.593750 0.500000
vt 0.484375 0.500000
vt 0.540818 0.391880
vt 0.540818 0.248460
vt 0.182269 0.105041
vt 0.593750 0.625000
vt 0.484375 0.625000
vt 0.540818 0.122324
vt 0.540818 0.552582
vt 0.182269 0.122324
vt 0.125000 0.625000
vt 0.375000 0.625000
vt 0.375000 0.750000
vt 0.125000 0.750000
vt 0.593750 0.750000
vt 0.484375 0.750000
vt 0.339698 0.036690
vt 0.528881 0.074526
vt 0.528881 0.036690
vt 0.084182 0.000000
vt 0.084182 0.000000
vt 0.296981 0.000000
vt 0.339698 0.308448
vt 0.528881 0.497631
vt 0.528881 0.459794
vt 0.484375 0.125000
vt 0.593750 0.125000
vt 0.528881 0.597967
vt 0.528881 0.560131
vt 0.339698 0.370948
vt 0.528881 0.174863
vt 0.528881 0.137026
vt 0.339698 0.099190
vt 0.125000 0.500000
vt 0.375000 0.500000
vt 0.084182 0.067346
vt 0.296981 0.237585
vt 0.084182 0.067346
vt 0.593750 1.000000
vt 0.484375 1.000000
vt 1.000000 0.500000
vt 1.000000 1.000000
vt 0.875000 1.000000
vt 0.875000 0.500000
vt 0.750000 1.000000
vt 0.750000 0.500000
vt 0.625000 1.000000
vt 0.625000 0.500000
vt 0.500000 1.000000
vt 0.500000 0.500000
vt 0.375000 1.000000
vt 0.375000 0.500000
vt 0.250000 1.000000
vt 0.250000 0.500000
vt 0.125000 1.000000
vt 0.250000 1.000000
vt 0.125000 1.000000
vt 0.125000 0.500000
vt 0.000000 1.000000
vt 0.000000 0.500000
vt 0.750000 0.490000
vt 0.919706 0.419706
vt 0.990000 0.250000
vt 0.919706 0.080294
vt 0.750000 0.010000
vt 0.580294 0.080294
vt 0.510000 0.250000
vt 0.580294 0.419706
vt 0.463469 0.000000
vt 0.565762 0.000000
vt 0.625000 0.100450
vt 0.377950 0.000000
vt 0.557112 0.000000
vt 0.625000 0.027957
vt 0.625000 0.017849
vt 0.625000 0.966517
vt 0.625000 0.981975
vt 0.625000 1.000000
vt 0.499868 0.199947
vt 0.613746 0.243950
vt 0.625000 0.222043
vt 0.625000 0.269807
vt 0.625000 0.250000
vt 0.499868 0.599842
vt 0.613746 0.723110
vt 0.625000 0.722043
vt 0.625000 0.690579
vt 0.625000 0.750000
vt 0.463469 0.370775
vt 0.593219 0.474531
vt 0.625000 0.466517
vt 0.377950 0.302360
vt 0.625000 0.527957
vt 0.625000 0.500000
vt 0.625000 0.109375
vt 0.619683 0.123937
vt 0.625000 0.140625
vt 0.528881 0.105776
vt 0.625000 0.609375
vt 0.619683 0.619683
vt 0.625000 0.640625
vt 0.528881 0.528881
vt 0.274977 0.054995
vt 0.054230 0.017343
vt 0.226003 0.090401
vt 0.176959 0.000000
vt 0.000000 0.000000
vt 0.112076 0.089661
vt 0.112076 0.000000
vt 0.054230 0.044461
vt 0.000000 0.000000
vt 0.226003 0.271203
vt 0.274977 0.274977
vt 0.176959 0.141567
vt 0.625000 0.769807
vt 0.593750 0.000000
vt 0.484375 0.000000
vt 0.375000 0.000000
vt 0.375000 0.125000
vt 0.375000 1.000000
vt 0.375000 0.250000
vt 0.419706 0.419706
vt 0.250000 0.490000
vt 0.080294 0.419706
vt 0.010000 0.250000
vt 0.080294 0.080294
vt 0.250000 0.010000
vt 0.419706 0.080294
vt 0.490000 0.250000
vt 0.875000 1.000000
vt 0.750000 1.000000
vt 0.500000 1.000000
vt 0.375000 1.000000
vt 0.000000 1.000000
vt 1.000000 1.000000
vt 0.625000 1.000000
vn 0.0000 0.0902 -0.9959
vn 0.0000 0.0619 -0.9981
vn 1.0000 0.0000 0.0000
vn 0.0000 0.0619 0.9981
vn 0.0000 -1.0000 0.0000
vn -0.9423 0.3347 0.0000
vn 0.0000 0.1031 0.9947
vn 0.9423 0.3347 0.0000
vn -1.0000 0.0000 0.0000
vn 0.0000 0.1031 -0.9947
vn 0.0000 0.0902 0.9959
vn 0.3827 0.0000 -0.9239
vn 0.9239 0.0000 -0.3827
vn 0.9239 0.0000 0.3827
vn 0.3827 0.0000 0.9239
vn -0.3827 0.0000 0.9239
vn -0.9239 0.0000 0.3827
vn -0.5708 0.7863 -0.2364
vn -0.9239 0.0000 -0.3827
vn -0.3827 0.0000 -0.9239
vn -0.0147 0.0695 0.9975
vn 0.0169 0.0251 0.9995
vn -0.2269 0.1127 0.9674
vn -0.0674 0.0992 0.9928
vn -0.2764 0.1819 -0.9437
vn -0.0413 0.0909 -0.9950
vn -0.1194 0.1084 -0.9869
vn 0.2764 0.1819 0.9437
vn 0.0413 0.0909 0.9950
vn 0.1194 0.1084 0.9869
vn 0.0147 0.0695 -0.9975
vn -0.0169 0.0251 -0.9995
vn 0.2269 0.1127 -0.9674
vn 0.0674 0.0992 -0.9928
vn -0.9937 0.1117 -0.0000
vn -0.9681 0.2438 0.0568
vn -0.9681 0.2438 -0.0568
vn 0.9937 0.1117 0.0000
vn 0.9681 0.2438 -0.0568
vn 0.9681 0.2438 0.0568
vn -0.5326 0.3533 -0.7691
vn -0.6463 0.4209 0.6365
vn -0.1952 0.3752 0.9061
vn -0.0407 0.2086 -0.9772
vn -0.0733 0.1639 -0.9838
vn 0.0407 0.2086 0.9772
vn 0.0733 0.1639 0.9838
vn 0.5326 0.3533 0.7691
vn 0.6463 0.4209 -0.6365
vn 0.1952 0.3752 -0.9061
vn -0.9705 0.2410 -0.0000
vn -0.9949 0.1007 0.0000
vn 0.0000 0.0509 -0.9987
vn 0.0000 0.0526 -0.9986
vn 0.9705 0.2410 0.0000
vn 0.9949 0.1007 0.0000
vn 0.0000 0.0509 0.9987
vn 0.0000 0.0526 0.9986
vn -0.0119 0.0788 0.9968
vn 0.0241 0.0517 0.9984
vn -0.2379 0.1376 -0.9615
vn -0.0393 0.0734 -0.9965
vn 0.2379 0.1376 0.9615
vn 0.0393 0.0734 0.9965
vn 0.0607 0.1242 -0.9904
vn 0.3603 0.2001 -0.9111
vn -0.0607 0.1242 0.9904
vn -0.3603 0.2001 0.9111
vn 0.0119 0.0788 -0.9968
vn -0.0241 0.0517 -0.9984
vn -0.0000 0.2427 0.9701
vn 0.0000 0.2427 -0.9701
vn 0.0000 0.0502 0.9987
vn 0.0000 0.0502 -0.9987
vn 0.0000 1.0000 0.0000
vn 0.5708 0.7863 -0.2364
vn -0.2364 0.7863 0.5708
vn -0.2364 0.7863 -0.5708
vn 0.2364 0.7863 -0.5708
vn 0.5708 0.7863 0.2364
vn -0.5708 0.7863 0.2364
vn 0.2364 0.7863 0.5708
usemtl Material.001
s off
f 175/102/82 115/103/82 130/104/82 176/105/82
f 127/106/83 114/107/83 154/108/83
f 176/105/84 130/104/84 143/109/84 177/110/84
f 104/111/85 121/112/85 162/113/85
f 86/114/86 87/115/86 84/116/86 82/117/86
f 177/110/84 143/109/84 122/118/84 174/119/84
f 151/120/87 137/121/87 106/122/87
f 161/123/88 152/124/88 105/125/88
f 164/126/89 144/127/89 129/128/89
f 173/129/90 136/130/90 115/103/90 175/102/90
f 120/131/89 145/132/89 163/133/89
f 113/134/87 138/135/87 150/136/87
f 83/137/86 85/138/86 87/115/86 86/114/86
f 165/139/91 128/140/91 153/141/91
f 174/119/92 122/118/92 107/142/92 172/143/92
f 88/144/93 89/145/93 91/146/93 90/147/93
f 90/147/94 91/146/94 93/148/94 92/149/94
f 92/149/95 93/148/95 95/150/95 94/151/95
f 94/151/96 95/150/96 97/152/96 96/153/96
f 96/153/97 97/152/97 99/154/97 98/155/97
f 98/155/98 99/154/98 101/156/98 100/157/98
f 103/158/99 101/156/99 184/159/99 185/160/99
f 100/157/100 101/156/100 103/158/100 102/161/100
f 102/161/101 103/158/101 89/162/101 88/163/101
f 88/164/86 90/165/86 92/166/86 94/167/86 96/168/86 98/169/86 100/170/86 102/171/86
f 104/111/102 108/172/102 109/173/102 112/174/102
f 105/125/103 110/175/103 109/176/103 108/172/103
f 106/122/104 111/177/104 109/178/104 110/175/104
f 107/142/105 112/179/105 109/180/105 111/181/105
f 113/134/106 116/182/106 117/183/106 119/184/106
f 114/107/107 118/185/107 117/183/107 116/182/107
f 115/103/108 119/184/108 117/183/108 118/186/108
f 120/131/109 123/187/109 124/188/109 126/189/109
f 121/112/110 125/190/110 124/188/110 123/187/110
f 122/118/111 126/189/111 124/188/111 125/191/111
f 127/106/112 131/192/112 132/193/112 135/194/112
f 128/140/113 133/195/113 132/193/113 131/192/113
f 129/128/114 134/196/114 132/193/114 133/195/114
f 130/104/115 135/194/115 132/193/115 134/197/115
f 136/130/116 139/198/116 140/199/116 142/200/116
f 137/121/117 141/201/117 140/199/117 139/198/117
f 138/135/118 142/200/118 140/199/118 141/201/118
f 143/109/119 146/202/119 147/203/119 149/204/119
f 144/127/120 148/205/120 147/203/120 146/202/120
f 145/132/121 149/204/121 147/203/121 148/205/121
f 150/136/122 155/206/122 156/207/122 160/208/122
f 151/120/123 157/209/123 156/207/123 155/206/123
f 152/124/124 158/210/124 156/207/124 157/209/124
f 153/141/125 159/211/125 156/207/125 158/210/125
f 154/108/126 160/208/126 156/207/126 159/211/126
f 161/123/127 166/212/127 167/213/127 171/214/127
f 162/113/128 168/215/128 167/213/128 166/212/128
f 163/133/129 169/216/129 167/213/129 168/215/129
f 164/126/130 170/217/130 167/213/130 169/216/130
f 165/139/131 171/214/131 167/213/131 170/217/131
f 138/135/132 113/134/132 119/184/132 142/200/132
f 142/200/133 119/184/133 115/103/133 136/130/133
f 114/107/134 127/106/134 135/194/134 118/185/134
f 118/185/135 135/194/135 130/104/135 115/103/135
f 145/132/136 120/131/136 126/189/136 149/204/136
f 149/204/137 126/189/137 122/118/137 143/109/137
f 121/112/138 104/111/138 112/174/138 125/190/138
f 125/218/139 112/179/139 107/142/139 122/118/139
f 104/111/140 162/113/140 166/212/140 108/172/140
f 108/172/141 166/212/141 161/123/141 105/125/141
f 113/134/142 150/136/142 160/208/142 116/182/142
f 116/182/143 160/208/143 154/108/143 114/107/143
f 120/131/144 163/133/144 168/215/144 123/187/144
f 123/187/145 168/215/145 162/113/145 121/112/145
f 128/140/146 165/139/146 170/217/146 133/195/146
f 133/195/147 170/217/147 164/126/147 129/128/147
f 105/125/148 152/124/148 157/209/148 110/175/148
f 110/175/149 157/209/149 151/120/149 106/122/149
f 106/122/132 137/121/132 139/198/132 111/177/132
f 111/177/133 139/198/133 136/130/133 107/219/133
f 129/128/136 144/127/136 146/202/136 134/196/136
f 134/196/137 146/202/137 143/109/137 130/104/137
f 127/106/150 154/108/150 159/211/150 131/192/150
f 131/192/151 159/211/151 153/141/151 128/140/151
f 144/127/89 164/126/89 169/216/89 148/205/89
f 148/205/89 169/216/89 163/133/89 145/132/89
f 152/124/152 161/123/152 171/214/152 158/210/152
f 158/210/153 171/214/153 165/139/153 153/141/153
f 137/121/87 151/120/87 155/206/87 141/201/87
f 141/201/87 155/206/87 150/136/87 138/135/87
f 172/220/90 107/219/90 136/130/90 173/129/90
f 82/221/90 172/220/90 173/129/90 86/222/90
f 84/116/154 174/119/154 172/143/154 82/223/154
f 86/222/90 173/129/90 175/102/90 83/224/90
f 87/115/84 177/110/84 174/119/84 84/116/84
f 85/138/84 176/105/84 177/110/84 87/115/84
f 83/224/155 175/102/155 176/105/155 85/138/155
f 178/225/156 179/226/156 185/227/156 184/228/156 183/229/156 182/230/156 181/231/156 180/232/156
f 93/148/157 91/146/157 178/233/157 180/234/157
f 99/154/158 97/152/158 182/235/158 183/236/158
f 89/162/159 103/158/159 185/160/159 179/237/159
f 91/146/160 89/145/160 179/238/160 178/233/160
f 95/150/161 93/148/161 180/234/161 181/239/161
f 101/156/162 99/154/162 183/236/162 184/159/162
f 97/152/163 95/150/163 181/239/163 182/235/163
