# Blender v3.2.0 OBJ File: ''
# www.blender.org
mtllib model.mtl
o Cube.001_Cube.004
v -0.160000 -0.045000 -0.060000
v -0.160000 -0.035000 -0.050000
v -0.200000 -0.035000 -0.060000
v -0.160000 -0.044239 -0.056173
v -0.160000 -0.042071 -0.052929
v -0.175307 -0.044239 -0.060000
v -0.175481 -0.043369 -0.056130
v -0.174637 -0.041581 -0.053419
v -0.183094 -0.040774 -0.054226
v -0.175307 -0.035000 -0.050761
v -0.188284 -0.035000 -0.052929
v -0.160000 -0.038827 -0.050761
v -0.175481 -0.038870 -0.051631
v -0.186323 -0.038659 -0.053419
v -0.196955 -0.038827 -0.060000
v -0.188284 -0.042071 -0.060000
v -0.196955 -0.035000 -0.056173
v -0.193476 -0.038870 -0.056130
v -0.186323 -0.041581 -0.056341
v -0.160000 0.045000 -0.050000
v -0.160000 0.055000 -0.060000
v -0.200000 0.045000 -0.060000
v -0.160000 0.048827 -0.050761
v -0.160000 0.052071 -0.052929
v -0.175307 0.045000 -0.050761
v -0.175481 0.048870 -0.051631
v -0.174637 0.051581 -0.053419
v -0.183094 0.050774 -0.054226
v -0.175307 0.054239 -0.060000
v -0.188284 0.052071 -0.060000
v -0.160000 0.054239 -0.056173
v -0.175481 0.053369 -0.056130
v -0.186323 0.051581 -0.056341
v -0.196955 0.045000 -0.056173
v -0.188284 0.045000 -0.052929
v -0.196955 0.048827 -0.060000
v -0.193476 0.048870 -0.056130
v -0.186323 0.048659 -0.053419
v -0.160000 -0.045000 -0.140000
v -0.200000 -0.035000 -0.140000
v -0.160000 -0.035000 -0.150000
v -0.175307 -0.044239 -0.140000
v -0.188284 -0.042071 -0.140000
v -0.160000 -0.044239 -0.143827
v -0.175481 -0.043369 -0.143870
v -0.186323 -0.041581 -0.143659
v -0.183094 -0.040774 -0.145774
v -0.196955 -0.035000 -0.143827
v -0.188284 -0.035000 -0.147071
v -0.196955 -0.038827 -0.140000
v -0.193476 -0.038870 -0.143870
v -0.186323 -0.038659 -0.146581
v -0.160000 -0.038827 -0.149239
v -0.160000 -0.042071 -0.147071
v -0.175307 -0.035000 -0.149239
v -0.175481 -0.038870 -0.148369
v -0.174637 -0.041581 -0.146581
v -0.160000 0.055000 -0.140000
v -0.160000 0.045000 -0.150000
v -0.200000 0.045000 -0.140000
v -0.160000 0.054239 -0.143827
v -0.160000 0.052071 -0.147071
v -0.175307 0.054239 -0.140000
v -0.175481 0.053369 -0.143870
v -0.174637 0.051581 -0.146581
v -0.183094 0.050774 -0.145774
v -0.175307 0.045000 -0.149239
v -0.188284 0.045000 -0.147071
v -0.160000 0.048827 -0.149239
v -0.175481 0.048870 -0.148369
v -0.186323 0.048659 -0.146581
v -0.196955 0.048827 -0.140000
v -0.188284 0.052071 -0.140000
v -0.196955 0.045000 -0.143827
v -0.193476 0.048870 -0.143870
v -0.186323 0.051581 -0.143659
v 0.160000 -0.045000 -0.060000
v 0.200000 -0.035000 -0.060000
v 0.160000 -0.035000 -0.050000
v 0.175307 -0.044239 -0.060000
v 0.188284 -0.042071 -0.060000
v 0.160000 -0.044239 -0.056173
v 0.175481 -0.043369 -0.056130
v 0.186323 -0.041581 -0.056341
v 0.183094 -0.040774 -0.054226
v 0.196955 -0.035000 -0.056173
v 0.188284 -0.035000 -0.052929
v 0.196955 -0.038827 -0.060000
v 0.193476 -0.038870 -0.056130
v 0.186323 -0.038659 -0.053419
v 0.160000 -0.038827 -0.050761
v 0.160000 -0.042071 -0.052929
v 0.175307 -0.035000 -0.050761
v 0.175481 -0.038870 -0.051631
v 0.174637 -0.041581 -0.053419
v 0.160000 0.055000 -0.060000
v 0.160000 0.045000 -0.050000
v 0.200000 0.045000 -0.060000
v 0.160000 0.054239 -0.056173
v 0.160000 0.052071 -0.052929
v 0.175307 0.054239 -0.060000
v 0.175481 0.053369 -0.056130
v 0.174637 0.051581 -0.053419
v 0.183094 0.050774 -0.054226
v 0.175307 0.045000 -0.050761
v 0.188284 0.045000 -0.052929
v 0.160000 0.048827 -0.050761
v 0.175481 0.048870 -0.051631
v 0.186323 0.048659 -0.053419
v 0.196955 0.048827 -0.060000
v 0.188284 0.052071 -0.060000
v 0.196955 0.045000 -0.056173
v 0.193476 0.048870 -0.056130
v 0.186323 0.051581 -0.056341
v 0.160000 -0.045000 -0.140000
v 0.160000 -0.035000 -0.150000
v 0.200000 -0.035000 -0.140000
v 0.160000 -0.044239 -0.143827
v 0.160000 -0.042071 -0.147071
v 0.175307 -0.044239 -0.140000
v 0.175481 -0.043369 -0.143870
v 0.174637 -0.041581 -0.146581
v 0.183094 -0.040774 -0.145774
v 0.175307 -0.035000 -0.149239
v 0.188284 -0.035000 -0.147071
v 0.160000 -0.038827 -0.149239
v 0.175481 -0.038870 -0.148369
v 0.186323 -0.038659 -0.146581
v 0.196955 -0.038827 -0.140000
v 0.188284 -0.042071 -0.140000
v 0.196955 -0.035000 -0.143827
v 0.193476 -0.038870 -0.143870
v 0.186323 -0.041581 -0.143659
v 0.160000 0.055000 -0.140000
v 0.200000 0.045000 -0.140000
v 0.160000 0.045000 -0.150000
v 0.175307 0.054239 -0.140000
v 0.188284 0.052071 -0.140000
v 0.160000 0.054239 -0.143827
v 0.175481 0.053369 -0.143870
v 0.186323 0.051581 -0.143659
v 0.183094 0.050774 -0.145774
v 0.196955 0.045000 -0.143827
v 0.188284 0.045000 -0.147071
v 0.196955 0.048827 -0.140000
v 0.193476 0.048870 -0.143870
v 0.186323 0.048659 -0.146581
v 0.160000 0.048827 -0.149239
v 0.160000 0.052071 -0.147071
v 0.175307 0.045000 -0.149239
v 0.175481 0.048870 -0.148369
v 0.174637 0.051581 -0.146581
v -0.160000 -0.050000 0.040000
v -0.160000 -0.040000 0.050000
v -0.200000 -0.040000 0.040000
v -0.160000 -0.049239 0.043827
v -0.160000 -0.047071 0.047071
v -0.175307 -0.049239 0.040000
v -0.175481 -0.048369 0.043870
v -0.174637 -0.046581 0.046581
v -0.183094 -0.045774 0.045773
v -0.175307 -0.040000 0.049239
v -0.188284 -0.040000 0.047071
v -0.160000 -0.043827 0.049239
v -0.175481 -0.043870 0.048369
v -0.186323 -0.043659 0.046581
v -0.196955 -0.043827 0.040000
v -0.188284 -0.047071 0.040000
v -0.196955 -0.040000 0.043827
v -0.193476 -0.043870 0.043870
v -0.186323 -0.046581 0.043659
v -0.160000 0.040000 0.050000
v -0.160000 0.050000 0.040000
v -0.200000 0.040000 0.040000
v -0.160000 0.043827 0.049239
v -0.160000 0.047071 0.047071
v -0.175307 0.040000 0.049239
v -0.175481 0.043870 0.048369
v -0.174637 0.046581 0.046581
v -0.183094 0.045774 0.045773
v -0.175307 0.049239 0.040000
v -0.188284 0.047071 0.040000
v -0.160000 0.049239 0.043827
v -0.175481 0.048369 0.043870
v -0.186323 0.046581 0.043659
v -0.196955 0.040000 0.043827
v -0.188284 0.040000 0.047071
v -0.196955 0.043827 0.040000
v -0.193476 0.043870 0.043870
v -0.186323 0.043659 0.046581
v -0.160000 -0.050000 -0.040000
v -0.200000 -0.040000 -0.040000
v -0.160000 -0.040000 -0.050000
v -0.175307 -0.049239 -0.040000
v -0.188284 -0.047071 -0.040000
v -0.160000 -0.049239 -0.043827
v -0.175481 -0.048369 -0.043870
v -0.186323 -0.046581 -0.043659
v -0.183094 -0.045774 -0.045774
v -0.196955 -0.040000 -0.043827
v -0.188284 -0.040000 -0.047071
v -0.196955 -0.043827 -0.040000
v -0.193476 -0.043870 -0.043870
v -0.186323 -0.043659 -0.046581
v -0.160000 -0.043827 -0.049239
v -0.160000 -0.047071 -0.047071
v -0.175307 -0.040000 -0.049239
v -0.175481 -0.043870 -0.048369
v -0.174637 -0.046581 -0.046581
v -0.160000 0.050000 -0.040000
v -0.160000 0.040000 -0.050000
v -0.200000 0.040000 -0.040000
v -0.160000 0.049239 -0.043827
v -0.160000 0.047071 -0.047071
v -0.175307 0.049239 -0.040000
v -0.175481 0.048369 -0.043870
v -0.174637 0.046581 -0.046581
v -0.183094 0.045774 -0.045774
v -0.175307 0.040000 -0.049239
v -0.188284 0.040000 -0.047071
v -0.160000 0.043827 -0.049239
v -0.175481 0.043870 -0.048369
v -0.186323 0.043659 -0.046581
v -0.196955 0.043827 -0.040000
v -0.188284 0.047071 -0.040000
v -0.196955 0.040000 -0.043827
v -0.193476 0.043870 -0.043870
v -0.186323 0.046581 -0.043659
v 0.160000 -0.050000 0.040000
v 0.200000 -0.040000 0.040000
v 0.160000 -0.040000 0.050000
v 0.175307 -0.049239 0.040000
v 0.188284 -0.047071 0.040000
v 0.160000 -0.049239 0.043827
v 0.175481 -0.048369 0.043870
v 0.186323 -0.046581 0.043659
v 0.183094 -0.045774 0.045773
v 0.196955 -0.040000 0.043827
v 0.188284 -0.040000 0.047071
v 0.196955 -0.043827 0.040000
v 0.193476 -0.043870 0.043870
v 0.186323 -0.043659 0.046581
v 0.160000 -0.043827 0.049239
v 0.160000 -0.047071 0.047071
v 0.175307 -0.040000 0.049239
v 0.175481 -0.043870 0.048369
v 0.174637 -0.046581 0.046581
v 0.160000 0.050000 0.040000
v 0.160000 0.040000 0.050000
v 0.200000 0.040000 0.040000
v 0.160000 0.049239 0.043827
v 0.160000 0.047071 0.047071
v 0.175307 0.049239 0.040000
v 0.175481 0.048369 0.043870
v 0.174637 0.046581 0.046581
v 0.183094 0.045774 0.045773
v 0.175307 0.040000 0.049239
v 0.188284 0.040000 0.047071
v 0.160000 0.043827 0.049239
v 0.175481 0.043870 0.048369
v 0.186323 0.043659 0.046581
v 0.196955 0.043827 0.040000
v 0.188284 0.047071 0.040000
v 0.196955 0.040000 0.043827
v 0.193476 0.043870 0.043870
v 0.186323 0.046581 0.043659
v 0.160000 -0.050000 -0.040000
v 0.160000 -0.040000 -0.050000
v 0.200000 -0.040000 -0.040000
v 0.160000 -0.049239 -0.043827
v 0.160000 -0.047071 -0.047071
v 0.175307 -0.049239 -0.040000
v 0.175481 -0.048369 -0.043870
v 0.174637 -0.046581 -0.046581
v 0.183094 -0.045774 -0.045774
v 0.175307 -0.040000 -0.049239
v 0.188284 -0.040000 -0.047071
v 0.160000 -0.043827 -0.049239
v 0.175481 -0.043870 -0.048369
v 0.186323 -0.043659 -0.046581
v 0.196955 -0.043827 -0.040000
v 0.188284 -0.047071 -0.040000
v 0.196955 -0.040000 -0.043827
v 0.193476 -0.043870 -0.043870
v 0.186323 -0.046581 -0.043659
v 0.160000 0.050000 -0.040000
v 0.200000 0.040000 -0.040000
v 0.160000 0.040000 -0.050000
v 0.175307 0.049239 -0.040000
v 0.188284 0.047071 -0.040000
v 0.160000 0.049239 -0.043827
v 0.175481 0.048369 -0.043870
v 0.186323 0.046581 -0.043659
v 0.183094 0.045774 -0.045774
v 0.196955 0.040000 -0.043827
v 0.188284 0.040000 -0.047071
v 0.196955 0.043827 -0.040000
v 0.193476 0.043870 -0.043870
v 0.186323 0.043659 -0.046581
v 0.160000 0.043827 -0.049239
v 0.160000 0.047071 -0.047071
v 0.175307 0.040000 -0.049239
v 0.175481 0.043870 -0.048369
v 0.174637 0.046581 -0.046581
v -0.155000 -0.047000 0.140000
v -0.155000 -0.037000 0.150000
v -0.195000 -0.037000 0.140000
v -0.155000 -0.046239 0.143827
v -0.155000 -0.044071 0.147071
v -0.170307 -0.046239 0.140000
v -0.170481 -0.045369 0.143870
v -0.169637 -0.043581 0.146581
v -0.178094 -0.042774 0.145774
v -0.170307 -0.037000 0.149239
v -0.183284 -0.037000 0.147071
v -0.155000 -0.040827 0.149239
v -0.170481 -0.040870 0.148369
v -0.181323 -0.040659 0.146581
v -0.191955 -0.040827 0.140000
v -0.183284 -0.044071 0.140000
v -0.191955 -0.037000 0.143827
v -0.188477 -0.040870 0.143870
v -0.181323 -0.043581 0.143659
v -0.155000 0.043000 0.150000
v -0.155000 0.053000 0.140000
v -0.195000 0.043000 0.140000
v -0.155000 0.046827 0.149239
v -0.155000 0.050071 0.147071
v -0.170307 0.043000 0.149239
v -0.170481 0.046870 0.148369
v -0.169637 0.049581 0.146581
v -0.178094 0.048774 0.145774
v -0.170307 0.052239 0.140000
v -0.183284 0.050071 0.140000
v -0.155000 0.052239 0.143827
v -0.170481 0.051369 0.143870
v -0.181323 0.049581 0.143659
v -0.191955 0.043000 0.143827
v -0.183284 0.043000 0.147071
v -0.191955 0.046827 0.140000
v -0.188477 0.046870 0.143870
v -0.181323 0.046659 0.146581
v -0.155000 -0.047000 0.060000
v -0.195000 -0.037000 0.060000
v -0.155000 -0.037000 0.050000
v -0.170307 -0.046239 0.060000
v -0.183284 -0.044071 0.060000
v -0.155000 -0.046239 0.056173
v -0.170481 -0.045369 0.056130
v -0.181323 -0.043581 0.056341
v -0.178094 -0.042774 0.054226
v -0.191955 -0.037000 0.056173
v -0.183284 -0.037000 0.052929
v -0.191955 -0.040827 0.060000
v -0.188477 -0.040870 0.056130
v -0.181323 -0.040659 0.053419
v -0.155000 -0.040827 0.050761
v -0.155000 -0.044071 0.052929
v -0.170307 -0.037000 0.050761
v -0.170481 -0.040870 0.051631
v -0.169637 -0.043581 0.053419
v -0.155000 0.053000 0.060000
v -0.155000 0.043000 0.050000
v -0.195000 0.043000 0.060000
v -0.155000 0.052239 0.056173
v -0.155000 0.050071 0.052929
v -0.170307 0.052239 0.060000
v -0.170481 0.051369 0.056130
v -0.169637 0.049581 0.053419
v -0.178094 0.048774 0.054226
v -0.170307 0.043000 0.050761
v -0.183284 0.043000 0.052929
v -0.155000 0.046827 0.050761
v -0.170481 0.046870 0.051631
v -0.181323 0.046659 0.053419
v -0.191955 0.046827 0.060000
v -0.183284 0.050071 0.060000
v -0.191955 0.043000 0.056173
v -0.188477 0.046870 0.056130
v -0.181323 0.049581 0.056341
v 0.165000 -0.047000 0.140000
v 0.205000 -0.037000 0.140000
v 0.165000 -0.037000 0.150000
v 0.180307 -0.046239 0.140000
v 0.193284 -0.044071 0.140000
v 0.165000 -0.046239 0.143827
v 0.180481 -0.045369 0.143870
v 0.191323 -0.043581 0.143659
v 0.188094 -0.042774 0.145774
v 0.201955 -0.037000 0.143827
v 0.193284 -0.037000 0.147071
v 0.201955 -0.040827 0.140000
v 0.198476 -0.040870 0.143870
v 0.191323 -0.040659 0.146581
v 0.165000 -0.040827 0.149239
v 0.165000 -0.044071 0.147071
v 0.180307 -0.037000 0.149239
v 0.180481 -0.040870 0.148369
v 0.179637 -0.043581 0.146581
v 0.165000 0.053000 0.140000
v 0.165000 0.043000 0.150000
v 0.205000 0.043000 0.140000
v 0.165000 0.052239 0.143827
v 0.165000 0.050071 0.147071
v 0.180307 0.052239 0.140000
v 0.180481 0.051369 0.143870
v 0.179637 0.049581 0.146581
v 0.188094 0.048774 0.145774
v 0.180307 0.043000 0.149239
v 0.193284 0.043000 0.147071
v 0.165000 0.046827 0.149239
v 0.180481 0.046870 0.148369
v 0.191323 0.046659 0.146581
v 0.201955 0.046827 0.140000
v 0.193284 0.050071 0.140000
v 0.201955 0.043000 0.143827
v 0.198476 0.046870 0.143870
v 0.191323 0.049581 0.143659
v 0.165000 -0.047000 0.060000
v 0.165000 -0.037000 0.050000
v 0.205000 -0.037000 0.060000
v 0.165000 -0.046239 0.056173
v 0.165000 -0.044071 0.052929
v 0.180307 -0.046239 0.060000
v 0.180481 -0.045369 0.056130
v 0.179637 -0.043581 0.053419
v 0.188094 -0.042774 0.054226
v 0.180307 -0.037000 0.050761
v 0.193284 -0.037000 0.052929
v 0.165000 -0.040827 0.050761
v 0.180481 -0.040870 0.051631
v 0.191323 -0.040659 0.053419
v 0.201955 -0.040827 0.060000
v 0.193284 -0.044071 0.060000
v 0.201955 -0.037000 0.056173
v 0.198476 -0.040870 0.056130
v 0.191323 -0.043581 0.056341
v 0.165000 0.053000 0.060000
v 0.205000 0.043000 0.060000
v 0.165000 0.043000 0.050000
v 0.180307 0.052239 0.060000
v 0.193284 0.050071 0.060000
v 0.165000 0.052239 0.056173
v 0.180481 0.051369 0.056130
v 0.191323 0.049581 0.056341
v 0.188094 0.048774 0.054226
v 0.201955 0.043000 0.056173
v 0.193284 0.043000 0.052929
v 0.201955 0.046827 0.060000
v 0.198476 0.046870 0.056130
v 0.191323 0.046659 0.053419
v 0.165000 0.046827 0.050761
v 0.165000 0.050071 0.052929
v 0.180307 0.043000 0.050761
v 0.180481 0.046870 0.051631
v 0.179637 0.049581 0.053419
vt 0.768144 0.498293
vt 0.791752 0.498293
vt 0.791752 0.521900
vt 0.768144 0.521900
vt 0.685430 0.141304
vt 0.763265 0.201668
vt 0.720820 0.279503
vt 0.642985 0.219140
vt 0.797654 0.468783
vt 0.821261 0.468783
vt 0.821261 0.492391
vt 0.797654 0.492391
vt 0.575189 0.165645
vt 0.518001 0.131082
vt 0.542304 0.073894
vt 0.599492 0.108456
vt 0.615312 0.142391
vt 0.581324 0.142391
vt 0.581324 0.108403
vt 0.615312 0.108403
vt 0.738634 0.492391
vt 0.738634 0.493520
vt 0.737492 0.493533
vt 0.737505 0.492391
vt 0.738634 0.495342
vt 0.737554 0.495342
vt 0.735683 0.493470
vt 0.735683 0.492391
vt 0.736930 0.495342
vt 0.768144 0.523030
vt 0.767002 0.523043
vt 0.767015 0.521900
vt 0.768144 0.524851
vt 0.767064 0.524851
vt 0.765193 0.522980
vt 0.765193 0.521900
vt 0.766440 0.524851
vt 0.577925 0.167298
vt 0.576780 0.170084
vt 0.574027 0.168381
vt 0.582338 0.169965
vt 0.581226 0.172581
vt 0.574767 0.174374
vt 0.572152 0.172794
vt 0.580584 0.174093
vt 0.792881 0.521900
vt 0.792894 0.523043
vt 0.791752 0.523030
vt 0.794703 0.521900
vt 0.794703 0.522980
vt 0.792831 0.524851
vt 0.791752 0.524851
vt 0.794703 0.523604
vt 0.822391 0.492391
vt 0.822403 0.493533
vt 0.821261 0.493520
vt 0.824212 0.492391
vt 0.824212 0.493470
vt 0.822341 0.495342
vt 0.821261 0.495342
vt 0.824212 0.494094
vt 0.516838 0.133818
vt 0.514058 0.132177
vt 0.515265 0.129429
vt 0.514963 0.138231
vt 0.512347 0.136650
vt 0.509741 0.129378
vt 0.510852 0.126762
vt 0.510836 0.135736
vt 0.738634 0.468783
vt 0.737505 0.468783
vt 0.737492 0.467641
vt 0.738634 0.467654
vt 0.735683 0.468783
vt 0.735683 0.467703
vt 0.737554 0.465832
vt 0.738634 0.465832
vt 0.735683 0.467079
vt 0.600655 0.105721
vt 0.603435 0.107362
vt 0.602228 0.110110
vt 0.602530 0.101308
vt 0.605146 0.102889
vt 0.607753 0.110161
vt 0.606641 0.112777
vt 0.606657 0.103802
vt 0.605568 0.094159
vt 0.608304 0.095813
vt 0.607159 0.098598
vt 0.604406 0.096895
vt 0.612717 0.098480
vt 0.611605 0.101095
vt 0.610963 0.102607
vt 0.821261 0.467654
vt 0.822403 0.467641
vt 0.822391 0.468783
vt 0.821261 0.465832
vt 0.822341 0.465832
vt 0.824212 0.467703
vt 0.824212 0.468783
vt 0.822965 0.465832
vt 0.548379 0.059596
vt 0.547217 0.062332
vt 0.544437 0.060691
vt 0.545644 0.057943
vt 0.545342 0.066745
vt 0.542726 0.065164
vt 0.540119 0.057892
vt 0.541231 0.055276
vt 0.541214 0.064251
vt 0.539568 0.072240
vt 0.540713 0.069455
vt 0.543466 0.071158
vt 0.535155 0.069573
vt 0.536267 0.066957
vt 0.536909 0.065446
vt 0.623526 0.204049
vt 0.627249 0.206936
vt 0.625238 0.210735
vt 0.621496 0.207772
vt 0.633255 0.211594
vt 0.631314 0.215154
vt 0.621780 0.216539
vt 0.618220 0.213778
vt 0.629320 0.222387
vt 0.640954 0.222863
vt 0.637166 0.219985
vt 0.639261 0.216252
vt 0.637679 0.228869
vt 0.634119 0.226108
vt 0.632374 0.238599
vt 0.628650 0.235711
vt 0.630661 0.231913
vt 0.634404 0.234875
vt 0.622644 0.231053
vt 0.624586 0.227493
vt 0.740279 0.294594
vt 0.738249 0.298318
vt 0.734460 0.295439
vt 0.736556 0.291707
vt 0.734973 0.304324
vt 0.731413 0.301563
vt 0.728608 0.290609
vt 0.730550 0.287049
vt 0.725991 0.295408
vt 0.710209 0.298962
vt 0.712239 0.295239
vt 0.716028 0.298117
vt 0.713932 0.301850
vt 0.715515 0.289233
vt 0.719075 0.291994
vt 0.721880 0.302948
vt 0.719938 0.306508
vt 0.724543 0.282391
vt 0.722532 0.286189
vt 0.718790 0.283227
vt 0.665971 0.126213
vt 0.668001 0.122490
vt 0.671790 0.125368
vt 0.669694 0.129101
vt 0.671276 0.116484
vt 0.674837 0.119245
vt 0.677642 0.130198
vt 0.675700 0.133759
vt 0.680258 0.125400
vt 0.696041 0.121845
vt 0.694011 0.125569
vt 0.690222 0.122690
vt 0.692318 0.118958
vt 0.690735 0.131575
vt 0.687175 0.128814
vt 0.684370 0.117860
vt 0.686311 0.114300
vt 0.681706 0.138417
vt 0.683717 0.134618
vt 0.687460 0.137581
vt 0.782724 0.216759
vt 0.779001 0.213871
vt 0.781012 0.210073
vt 0.784754 0.213036
vt 0.772995 0.209213
vt 0.774936 0.205653
vt 0.784469 0.204268
vt 0.788029 0.207029
vt 0.776929 0.198421
vt 0.765295 0.197945
vt 0.769084 0.200823
vt 0.766988 0.204555
vt 0.768571 0.191938
vt 0.772131 0.194700
vt 0.773876 0.182209
vt 0.777600 0.185097
vt 0.775589 0.188895
vt 0.771846 0.185932
vt 0.783606 0.189754
vt 0.781664 0.193315
vt 0.762242 0.468783
vt 0.762242 0.467654
vt 0.762242 0.465832
vt 0.619560 0.108403
vt 0.619560 0.142391
vt 0.616938 0.142391
vt 0.616938 0.108403
vt 0.797654 0.467654
vt 0.797654 0.465832
vt 0.577076 0.142391
vt 0.577076 0.108403
vt 0.579699 0.108403
vt 0.579699 0.142391
vt 0.796524 0.492391
vt 0.796524 0.468783
vt 0.762242 0.492391
vt 0.762242 0.493520
vt 0.762242 0.495342
vt 0.765193 0.498293
vt 0.767015 0.498293
vt 0.797654 0.493520
vt 0.797654 0.495342
vt 0.794703 0.498293
vt 0.792881 0.498293
vt 0.768144 0.498293
vt 0.791752 0.498293
vt 0.791752 0.521900
vt 0.768144 0.521900
vt 0.685430 0.141304
vt 0.763265 0.201668
vt 0.720820 0.279503
vt 0.642985 0.219140
vt 0.797654 0.468783
vt 0.821261 0.468783
vt 0.821261 0.492391
vt 0.797654 0.492391
vt 0.575189 0.165645
vt 0.518001 0.131082
vt 0.542304 0.073894
vt 0.599492 0.108456
vt 0.615312 0.142391
vt 0.581324 0.142391
vt 0.581324 0.108403
vt 0.615312 0.108403
vt 0.738634 0.492391
vt 0.738634 0.493520
vt 0.737492 0.493533
vt 0.737505 0.492391
vt 0.738634 0.495342
vt 0.737554 0.495342
vt 0.735683 0.493470
vt 0.735683 0.492391
vt 0.736930 0.495342
vt 0.768144 0.523030
vt 0.767002 0.523043
vt 0.767015 0.521900
vt 0.768144 0.524851
vt 0.767064 0.524851
vt 0.765193 0.522980
vt 0.765193 0.521900
vt 0.766440 0.524851
vt 0.577925 0.167298
vt 0.576780 0.170084
vt 0.574027 0.168381
vt 0.582338 0.169965
vt 0.581226 0.172581
vt 0.574767 0.174374
vt 0.572152 0.172794
vt 0.580584 0.174093
vt 0.792881 0.521900
vt 0.792894 0.523043
vt 0.791752 0.523030
vt 0.794703 0.521900
vt 0.794703 0.522980
vt 0.792831 0.524851
vt 0.791752 0.524851
vt 0.794703 0.523604
vt 0.822391 0.492391
vt 0.822403 0.493533
vt 0.821261 0.493520
vt 0.824212 0.492391
vt 0.824212 0.493470
vt 0.822341 0.495342
vt 0.821261 0.495342
vt 0.824212 0.494094
vt 0.516838 0.133818
vt 0.514058 0.132177
vt 0.515265 0.129429
vt 0.514963 0.138231
vt 0.512347 0.136650
vt 0.509741 0.129378
vt 0.510852 0.126762
vt 0.510836 0.135736
vt 0.738634 0.468783
vt 0.737505 0.468783
vt 0.737492 0.467641
vt 0.738634 0.467654
vt 0.735683 0.468783
vt 0.735683 0.467703
vt 0.737554 0.465832
vt 0.738634 0.465832
vt 0.735683 0.467079
vt 0.600655 0.105721
vt 0.603435 0.107362
vt 0.602228 0.110110
vt 0.602530 0.101308
vt 0.605146 0.102889
vt 0.607753 0.110161
vt 0.606641 0.112777
vt 0.606657 0.103802
vt 0.605568 0.094159
vt 0.608304 0.095813
vt 0.607159 0.098598
vt 0.604406 0.096895
vt 0.612717 0.098480
vt 0.611605 0.101095
vt 0.610963 0.102607
vt 0.821261 0.467654
vt 0.822403 0.467641
vt 0.822391 0.468783
vt 0.821261 0.465832
vt 0.822341 0.465832
vt 0.824212 0.467703
vt 0.824212 0.468783
vt 0.822965 0.465832
vt 0.548379 0.059596
vt 0.547217 0.062332
vt 0.544437 0.060691
vt 0.545644 0.057943
vt 0.545342 0.066745
vt 0.542726 0.065164
vt 0.540119 0.057892
vt 0.541231 0.055276
vt 0.541214 0.064251
vt 0.539568 0.072240
vt 0.540713 0.069455
vt 0.543466 0.071158
vt 0.535155 0.069573
vt 0.536267 0.066957
vt 0.536909 0.065446
vt 0.623526 0.204049
vt 0.627249 0.206936
vt 0.577036 0.153312
vt 0.577672 0.153815
vt 0.633255 0.211594
vt 0.631314 0.215154
vt 0.577623 0.152325
vt 0.578228 0.152795
vt 0.629320 0.222387
vt 0.640954 0.222863
vt 0.637166 0.219985
vt 0.639261 0.216252
vt 0.637679 0.228869
vt 0.634119 0.226108
vt 0.632374 0.238599
vt 0.628650 0.235711
vt 0.630661 0.231913
vt 0.634404 0.234875
vt 0.622644 0.231053
vt 0.624586 0.227493
vt 0.740279 0.294594
vt 0.738249 0.298318
vt 0.734460 0.295439
vt 0.736556 0.291707
vt 0.734973 0.304324
vt 0.731413 0.301563
vt 0.728608 0.290609
vt 0.730550 0.287049
vt 0.725991 0.295408
vt 0.710209 0.298962
vt 0.712239 0.295239
vt 0.716028 0.298117
vt 0.713932 0.301850
vt 0.715515 0.289233
vt 0.719075 0.291994
vt 0.721880 0.302948
vt 0.719938 0.306508
vt 0.724543 0.282391
vt 0.722532 0.286189
vt 0.718790 0.283227
vt 0.665971 0.126213
vt 0.668001 0.122490
vt 0.671790 0.125368
vt 0.669694 0.129101
vt 0.671276 0.116484
vt 0.674837 0.119245
vt 0.677642 0.130198
vt 0.675700 0.133759
vt 0.680258 0.125400
vt 0.696041 0.121845
vt 0.694011 0.125569
vt 0.690222 0.122690
vt 0.692318 0.118958
vt 0.690735 0.131575
vt 0.687175 0.128814
vt 0.684370 0.117860
vt 0.686311 0.114300
vt 0.681706 0.138417
vt 0.683717 0.134618
vt 0.687460 0.137581
vt 0.782724 0.216759
vt 0.779001 0.213871
vt 0.781012 0.210073
vt 0.784754 0.213036
vt 0.772995 0.209213
vt 0.774936 0.205653
vt 0.784469 0.204268
vt 0.788029 0.207029
vt 0.776929 0.198421
vt 0.765295 0.197945
vt 0.769084 0.200823
vt 0.766988 0.204555
vt 0.768571 0.191938
vt 0.772131 0.194700
vt 0.773876 0.182209
vt 0.777600 0.185097
vt 0.775589 0.188895
vt 0.771846 0.185932
vt 0.783606 0.189754
vt 0.781664 0.193315
vt 0.762242 0.468783
vt 0.762242 0.467654
vt 0.762242 0.465832
vt 0.619560 0.108403
vt 0.619560 0.142391
vt 0.616938 0.142391
vt 0.616938 0.108403
vt 0.797654 0.467654
vt 0.797654 0.465832
vt 0.577076 0.142391
vt 0.577076 0.108403
vt 0.579699 0.108403
vt 0.579699 0.142391
vt 0.762242 0.492391
vt 0.762242 0.493520
vt 0.762242 0.495342
vt 0.765193 0.498293
vt 0.767015 0.498293
vt 0.797654 0.493520
vt 0.797654 0.495342
vt 0.794703 0.498293
vt 0.792881 0.498293
vt 0.768144 0.498293
vt 0.791752 0.498293
vt 0.791752 0.521900
vt 0.768144 0.521900
vt 0.685430 0.141304
vt 0.763265 0.201668
vt 0.720820 0.279503
vt 0.642985 0.219140
vt 0.797654 0.468783
vt 0.821261 0.468783
vt 0.821261 0.492391
vt 0.797654 0.492391
vt 0.575189 0.165645
vt 0.518001 0.131082
vt 0.542304 0.073894
vt 0.599492 0.108456
vt 0.615312 0.142391
vt 0.581324 0.142391
vt 0.581324 0.108403
vt 0.615312 0.108403
vt 0.738634 0.492391
vt 0.738634 0.493520
vt 0.737492 0.493533
vt 0.737505 0.492391
vt 0.738634 0.495342
vt 0.737554 0.495342
vt 0.735683 0.493470
vt 0.735683 0.492391
vt 0.736930 0.495342
vt 0.768144 0.523030
vt 0.767002 0.523043
vt 0.767015 0.521900
vt 0.768144 0.524851
vt 0.767064 0.524851
vt 0.765193 0.522980
vt 0.765193 0.521900
vt 0.766440 0.524851
vt 0.577925 0.167298
vt 0.576780 0.170084
vt 0.574027 0.168381
vt 0.582338 0.169965
vt 0.581226 0.172581
vt 0.574767 0.174374
vt 0.572152 0.172794
vt 0.580584 0.174093
vt 0.792881 0.521900
vt 0.792894 0.523043
vt 0.791752 0.523030
vt 0.794703 0.521900
vt 0.794703 0.522980
vt 0.792831 0.524851
vt 0.791752 0.524851
vt 0.794703 0.523604
vt 0.822391 0.492391
vt 0.822403 0.493533
vt 0.821261 0.493520
vt 0.824212 0.492391
vt 0.824212 0.493470
vt 0.822341 0.495342
vt 0.821261 0.495342
vt 0.824212 0.494094
vt 0.516838 0.133818
vt 0.514058 0.132177
vt 0.515265 0.129429
vt 0.514963 0.138231
vt 0.512347 0.136650
vt 0.509741 0.129378
vt 0.510852 0.126762
vt 0.510836 0.135736
vt 0.738634 0.468783
vt 0.737505 0.468783
vt 0.737492 0.467641
vt 0.738634 0.467654
vt 0.735683 0.468783
vt 0.735683 0.467703
vt 0.737554 0.465832
vt 0.738634 0.465832
vt 0.735683 0.467079
vt 0.600655 0.105721
vt 0.603435 0.107362
vt 0.602228 0.110110
vt 0.602530 0.101308
vt 0.605146 0.102889
vt 0.607753 0.110161
vt 0.606641 0.112777
vt 0.606657 0.103802
vt 0.605568 0.094159
vt 0.608304 0.095813
vt 0.607159 0.098598
vt 0.604406 0.096895
vt 0.612717 0.098480
vt 0.611605 0.101095
vt 0.610963 0.102607
vt 0.821261 0.467654
vt 0.822403 0.467641
vt 0.822391 0.468783
vt 0.821261 0.465832
vt 0.822341 0.465832
vt 0.824212 0.467703
vt 0.824212 0.468783
vt 0.822965 0.465832
vt 0.548379 0.059596
vt 0.547217 0.062332
vt 0.544437 0.060691
vt 0.545644 0.057943
vt 0.545342 0.066745
vt 0.542726 0.065164
vt 0.540119 0.057892
vt 0.541231 0.055276
vt 0.541214 0.064251
vt 0.539568 0.072240
vt 0.540713 0.069455
vt 0.543466 0.071158
vt 0.535155 0.069573
vt 0.536267 0.066957
vt 0.536909 0.065446
vt 0.623526 0.204049
vt 0.627249 0.206936
vt 0.577036 0.153312
vt 0.577672 0.153815
vt 0.633255 0.211594
vt 0.631314 0.215154
vt 0.577623 0.152325
vt 0.578228 0.152795
vt 0.629320 0.222387
vt 0.640954 0.222863
vt 0.637166 0.219985
vt 0.639261 0.216252
vt 0.637679 0.228869
vt 0.634119 0.226108
vt 0.632374 0.238599
vt 0.628650 0.235711
vt 0.630661 0.231913
vt 0.634404 0.234875
vt 0.622644 0.231053
vt 0.624586 0.227493
vt 0.740279 0.294594
vt 0.738249 0.298318
vt 0.734460 0.295439
vt 0.736556 0.291707
vt 0.734973 0.304324
vt 0.731413 0.301563
vt 0.728608 0.290609
vt 0.730550 0.287049
vt 0.725991 0.295408
vt 0.710209 0.298962
vt 0.712239 0.295239
vt 0.716028 0.298117
vt 0.713932 0.301850
vt 0.715515 0.289233
vt 0.719075 0.291994
vt 0.721880 0.302948
vt 0.719938 0.306508
vt 0.724543 0.282391
vt 0.722532 0.286189
vt 0.718790 0.283227
vt 0.665971 0.126213
vt 0.668001 0.122490
vt 0.671790 0.125368
vt 0.669694 0.129101
vt 0.671276 0.116484
vt 0.674837 0.119245
vt 0.677642 0.130198
vt 0.675700 0.133759
vt 0.680258 0.125400
vt 0.696041 0.121845
vt 0.694011 0.125569
vt 0.690222 0.122690
vt 0.692318 0.118958
vt 0.690735 0.131575
vt 0.687175 0.128814
vt 0.684370 0.117860
vt 0.686311 0.114300
vt 0.681706 0.138417
vt 0.683717 0.134618
vt 0.687460 0.137581
vt 0.782724 0.216759
vt 0.779001 0.213871
vt 0.781012 0.210073
vt 0.784754 0.213036
vt 0.772995 0.209213
vt 0.774936 0.205653
vt 0.784469 0.204268
vt 0.788029 0.207029
vt 0.776929 0.198421
vt 0.765295 0.197945
vt 0.769084 0.200823
vt 0.766988 0.204555
vt 0.768571 0.191938
vt 0.772131 0.194700
vt 0.773876 0.182209
vt 0.777600 0.185097
vt 0.775589 0.188895
vt 0.771846 0.185932
vt 0.783606 0.189754
vt 0.781664 0.193315
vt 0.762242 0.468783
vt 0.762242 0.467654
vt 0.762242 0.465832
vt 0.619560 0.108403
vt 0.619560 0.142391
vt 0.616938 0.142391
vt 0.616938 0.108403
vt 0.797654 0.467654
vt 0.797654 0.465832
vt 0.577076 0.142391
vt 0.577076 0.108403
vt 0.579699 0.108403
vt 0.579699 0.142391
vt 0.762242 0.492391
vt 0.762242 0.493520
vt 0.762242 0.495342
vt 0.765193 0.498293
vt 0.767015 0.498293
vt 0.797654 0.493520
vt 0.797654 0.495342
vt 0.794703 0.498293
vt 0.792881 0.498293
vn 0.0000 0.0000 1.0000
vn 1.0000 0.0000 0.0000
vn 0.0000 1.0000 0.0000
vn -1.0000 0.0000 0.0000
vn 0.0000 0.0000 -1.0000
vn -0.0515 -0.9772 0.2059
vn -0.0457 -0.8291 0.5573
vn -0.1619 -0.9636 0.2125
vn -0.1395 -0.8181 0.5579
vn -0.0515 -0.2059 0.9772
vn -0.1619 -0.2125 0.9636
vn -0.0457 -0.5573 0.8291
vn -0.1395 -0.5579 0.8181
vn -0.6428 -0.5417 0.5417
vn -0.3332 -0.8959 0.2939
vn -0.3332 -0.2939 0.8959
vn -0.2509 -0.6845 0.6845
vn -0.0515 0.2059 0.9772
vn -0.0457 0.5573 0.8291
vn -0.1619 0.2125 0.9636
vn -0.1395 0.5579 0.8181
vn -0.0515 0.9772 0.2059
vn -0.1619 0.9636 0.2125
vn -0.0457 0.8291 0.5573
vn -0.1395 0.8181 0.5579
vn -0.6428 0.5417 0.5417
vn -0.3332 0.2939 0.8959
vn -0.3332 0.8959 0.2939
vn -0.2509 0.6845 0.6845
vn -0.0515 -0.9772 -0.2059
vn -0.1619 -0.9636 -0.2125
vn -0.0457 -0.8291 -0.5573
vn -0.1395 -0.8181 -0.5579
vn -0.6428 -0.5417 -0.5417
vn -0.3332 -0.2939 -0.8959
vn -0.3332 -0.8959 -0.2939
vn -0.2509 -0.6845 -0.6845
vn -0.0515 -0.2059 -0.9772
vn -0.0457 -0.5573 -0.8291
vn -0.1619 -0.2125 -0.9636
vn -0.1395 -0.5579 -0.8181
vn -0.0515 0.9772 -0.2059
vn -0.0457 0.8291 -0.5573
vn -0.1619 0.9636 -0.2125
vn -0.1395 0.8181 -0.5579
vn -0.0515 0.2059 -0.9772
vn -0.1619 0.2125 -0.9636
vn -0.0457 0.5573 -0.8291
vn -0.1395 0.5579 -0.8181
vn -0.6428 0.5417 -0.5417
vn -0.3332 0.8959 -0.2939
vn -0.3332 0.2939 -0.8959
vn -0.2509 0.6845 -0.6845
vn 0.0515 -0.9772 0.2059
vn 0.1619 -0.9636 0.2125
vn 0.0457 -0.8291 0.5573
vn 0.1395 -0.8181 0.5579
vn 0.6428 -0.5417 0.5417
vn 0.3332 -0.2939 0.8959
vn 0.3332 -0.8959 0.2939
vn 0.2509 -0.6845 0.6845
vn 0.0515 -0.2059 0.9772
vn 0.0457 -0.5573 0.8291
vn 0.1619 -0.2125 0.9636
vn 0.1395 -0.5579 0.8181
vn 0.0515 0.9772 0.2059
vn 0.0457 0.8291 0.5573
vn 0.1619 0.9636 0.2125
vn 0.1395 0.8181 0.5579
vn 0.0515 0.2059 0.9772
vn 0.1619 0.2125 0.9636
vn 0.0457 0.5573 0.8291
vn 0.1395 0.5579 0.8181
vn 0.6428 0.5417 0.5417
vn 0.3332 0.8959 0.2939
vn 0.3332 0.2939 0.8959
vn 0.2509 0.6845 0.6845
vn 0.0515 -0.9772 -0.2059
vn 0.0457 -0.8291 -0.5573
vn 0.1619 -0.9636 -0.2125
vn 0.1395 -0.8181 -0.5579
vn 0.0515 -0.2059 -0.9772
vn 0.1619 -0.2125 -0.9636
vn 0.0457 -0.5573 -0.8291
vn 0.1395 -0.5579 -0.8181
vn 0.6428 -0.5417 -0.5417
vn 0.3332 -0.8959 -0.2939
vn 0.3332 -0.2939 -0.8959
vn 0.2509 -0.6845 -0.6845
vn 0.0515 0.9772 -0.2059
vn 0.1619 0.9636 -0.2125
vn 0.0457 0.8291 -0.5573
vn 0.1395 0.8181 -0.5579
vn 0.6428 0.5417 -0.5417
vn 0.3332 0.2939 -0.8959
vn 0.3332 0.8959 -0.2939
vn 0.2509 0.6845 -0.6845
vn 0.0515 0.2059 -0.9772
vn 0.0457 0.5573 -0.8291
vn 0.1619 0.2125 -0.9636
vn 0.1395 0.5579 -0.8181
vn -0.0497 -0.9988 0.0000
vn -0.1648 -0.9863 0.0000
vn -0.3504 -0.9366 0.0000
vn -0.7825 -0.6226 0.0000
vn -0.0497 0.0000 0.9988
vn -0.1648 0.0000 0.9863
vn -0.3504 0.0000 0.9366
vn -0.7825 0.0000 0.6226
vn -0.0497 0.9988 0.0000
vn -0.1648 0.9863 0.0000
vn -0.3504 0.9366 0.0000
vn -0.7825 0.6226 0.0000
vn -0.0497 0.0000 -0.9988
vn -0.1648 0.0000 -0.9863
vn -0.3504 0.0000 -0.9366
vn -0.7825 0.0000 -0.6226
vn 0.0000 -0.9808 -0.1951
vn 0.0000 -0.8315 -0.5556
vn 0.0000 -0.5556 -0.8315
vn 0.0000 -0.1951 -0.9808
vn 0.0000 0.9808 -0.1951
vn 0.0000 0.8315 -0.5556
vn 0.0000 0.5556 -0.8315
vn 0.0000 0.1951 -0.9808
vn 0.7825 0.0000 -0.6226
vn 0.3504 0.0000 -0.9366
vn 0.1648 0.0000 -0.9863
vn 0.0497 0.0000 -0.9988
vn 0.0497 -0.9988 0.0000
vn 0.1648 -0.9863 0.0000
vn 0.3504 -0.9366 0.0000
vn 0.7825 -0.6226 0.0000
vn 0.0497 0.9988 0.0000
vn 0.1648 0.9863 0.0000
vn 0.3504 0.9366 0.0000
vn 0.7825 0.6226 0.0000
vn 0.0497 0.0000 0.9988
vn 0.1648 0.0000 0.9863
vn 0.3504 0.0000 0.9366
vn 0.7825 0.0000 0.6226
vn 0.0000 -0.9808 0.1951
vn 0.0000 -0.8315 0.5556
vn 0.0000 -0.5556 0.8315
vn 0.0000 -0.1951 0.9808
vn 0.0000 0.9808 0.1951
vn 0.0000 0.8315 0.5556
vn 0.0000 0.5556 0.8315
vn 0.0000 0.1951 0.9808
vn 0.0000 -1.0000 0.0000
usemtl Material.003
s off
f 79/1/1 97/2/1 20/3/1 2/4/1
f 117/5/2 135/6/2 98/7/2 78/8/2
f 134/9/3 58/10/3 21/11/3 96/12/3
f 3/13/4 22/14/4 60/15/4 40/16/4
f 41/17/5 59/18/5 136/19/5 116/20/5
f 1/21/6 4/22/6 7/23/6 6/24/6
f 4/22/7 5/25/7 8/26/7 7/23/7
f 6/24/8 7/23/8 19/27/8 16/28/8
f 7/23/9 8/26/9 9/29/9 19/27/9
f 2/4/10 10/30/10 13/31/10 12/32/10
f 10/30/11 11/33/11 14/34/11 13/31/11
f 12/32/12 13/31/12 8/35/12 5/36/12
f 13/31/13 14/34/13 9/37/13 8/35/13
f 3/13/14 15/38/14 18/39/14 17/40/14
f 15/38/15 16/41/15 19/42/15 18/39/15
f 17/40/16 18/39/16 14/43/16 11/44/16
f 18/39/17 19/42/17 9/45/17 14/43/17
f 20/3/18 23/46/18 26/47/18 25/48/18
f 23/46/19 24/49/19 27/50/19 26/47/19
f 25/48/20 26/47/20 38/51/20 35/52/20
f 26/47/21 27/50/21 28/53/21 38/51/21
f 21/11/22 29/54/22 32/55/22 31/56/22
f 29/54/23 30/57/23 33/58/23 32/55/23
f 31/56/24 32/55/24 27/59/24 24/60/24
f 32/55/25 33/58/25 28/61/25 27/59/25
f 22/14/26 34/62/26 37/63/26 36/64/26
f 34/62/27 35/65/27 38/66/27 37/63/27
f 36/64/28 37/63/28 33/67/28 30/68/28
f 37/63/29 38/66/29 28/69/29 33/67/29
f 39/70/30 42/71/30 45/72/30 44/73/30
f 42/71/31 43/74/31 46/75/31 45/72/31
f 44/73/32 45/72/32 57/76/32 54/77/32
f 45/72/33 46/75/33 47/78/33 57/76/33
f 40/16/34 48/79/34 51/80/34 50/81/34
f 48/79/35 49/82/35 52/83/35 51/80/35
f 50/81/36 51/80/36 46/84/36 43/85/36
f 51/80/37 52/83/37 47/86/37 46/84/37
f 41/87/38 53/88/38 56/89/38 55/90/38
f 53/88/39 54/91/39 57/92/39 56/89/39
f 55/90/40 56/89/40 52/83/40 49/82/40
f 56/89/41 57/92/41 47/93/41 52/83/41
f 58/10/42 61/94/42 64/95/42 63/96/42
f 61/94/43 62/97/43 65/98/43 64/95/43
f 63/96/44 64/95/44 76/99/44 73/100/44
f 64/95/45 65/98/45 66/101/45 76/99/45
f 59/102/46 67/103/46 70/104/46 69/105/46
f 67/103/47 68/106/47 71/107/47 70/104/47
f 69/105/48 70/104/48 65/108/48 62/109/48
f 70/104/49 71/107/49 66/110/49 65/108/49
f 60/15/50 72/111/50 75/112/50 74/113/50
f 72/111/51 73/114/51 76/115/51 75/112/51
f 74/113/52 75/112/52 71/107/52 68/106/52
f 75/112/53 76/115/53 66/116/53 71/107/53
f 77/117/54 80/118/54 83/119/54 82/120/54
f 80/118/55 81/121/55 84/122/55 83/119/55
f 82/120/56 83/119/56 95/123/56 92/124/56
f 83/119/57 84/122/57 85/125/57 95/123/57
f 78/8/58 86/126/58 89/127/58 88/128/58
f 86/126/59 87/129/59 90/130/59 89/127/59
f 88/128/60 89/127/60 84/122/60 81/121/60
f 89/127/61 90/130/61 85/125/61 84/122/61
f 79/131/62 91/132/62 94/133/62 93/134/62
f 91/132/63 92/135/63 95/136/63 94/133/63
f 93/134/64 94/133/64 90/130/64 87/129/64
f 94/133/65 95/136/65 85/125/65 90/130/65
f 96/137/66 99/138/66 102/139/66 101/140/66
f 99/138/67 100/141/67 103/142/67 102/139/67
f 101/140/68 102/139/68 114/143/68 111/144/68
f 102/139/69 103/142/69 104/145/69 114/143/69
f 97/146/70 105/147/70 108/148/70 107/149/70
f 105/147/71 106/150/71 109/151/71 108/148/71
f 107/149/72 108/148/72 103/152/72 100/153/72
f 108/148/73 109/151/73 104/145/73 103/152/73
f 98/7/74 110/154/74 113/155/74 112/156/74
f 110/154/75 111/144/75 114/143/75 113/155/75
f 112/156/76 113/155/76 109/151/76 106/150/76
f 113/155/77 114/143/77 104/145/77 109/151/77
f 115/157/78 118/158/78 121/159/78 120/160/78
f 118/158/79 119/161/79 122/162/79 121/159/79
f 120/160/80 121/159/80 133/163/80 130/164/80
f 121/159/81 122/162/81 123/165/81 133/163/81
f 116/166/82 124/167/82 127/168/82 126/169/82
f 124/167/83 125/170/83 128/171/83 127/168/83
f 126/169/84 127/168/84 122/172/84 119/173/84
f 127/168/85 128/171/85 123/165/85 122/172/85
f 117/5/86 129/174/86 132/175/86 131/176/86
f 129/174/87 130/164/87 133/163/87 132/175/87
f 131/176/88 132/175/88 128/171/88 125/170/88
f 132/175/89 133/163/89 123/165/89 128/171/89
f 134/177/90 137/178/90 140/179/90 139/180/90
f 137/178/91 138/181/91 141/182/91 140/179/91
f 139/180/92 140/179/92 152/183/92 149/184/92
f 140/179/93 141/182/93 142/185/93 152/183/93
f 135/6/94 143/186/94 146/187/94 145/188/94
f 143/186/95 144/189/95 147/190/95 146/187/95
f 145/188/96 146/187/96 141/182/96 138/181/96
f 146/187/97 147/190/97 142/185/97 141/182/97
f 136/191/98 148/192/98 151/193/98 150/194/98
f 148/192/99 149/195/99 152/196/99 151/193/99
f 150/194/100 151/193/100 147/190/100 144/189/100
f 151/193/101 152/196/101 142/185/101 147/190/101
f 39/70/102 1/21/102 6/24/102 42/71/102
f 42/71/103 6/24/103 16/28/103 43/74/103
f 43/85/104 16/41/104 15/38/104 50/81/104
f 50/81/105 15/38/105 3/13/105 40/16/105
f 2/4/106 20/3/106 25/48/106 10/30/106
f 10/30/107 25/48/107 35/52/107 11/33/107
f 11/44/108 35/65/108 34/62/108 17/40/108
f 17/40/109 34/62/109 22/14/109 3/13/109
f 21/11/110 58/10/110 63/96/110 29/54/110
f 29/54/111 63/96/111 73/100/111 30/57/111
f 30/68/112 73/114/112 72/111/112 36/64/112
f 36/64/113 72/111/113 60/15/113 22/14/113
f 59/102/114 41/87/114 55/90/114 67/103/114
f 67/103/115 55/90/115 49/82/115 68/106/115
f 68/106/116 49/82/116 48/79/116 74/113/116
f 74/113/117 48/79/117 40/16/117 60/15/117
f 115/197/118 39/70/118 44/73/118 118/198/118
f 118/198/119 44/73/119 54/77/119 119/199/119
f 119/200/120 54/201/120 53/202/120 126/203/120
f 126/203/121 53/202/121 41/17/121 116/20/121
f 58/10/122 134/9/122 139/204/122 61/94/122
f 61/94/123 139/204/123 149/205/123 62/97/123
f 62/206/124 149/207/124 148/208/124 69/209/124
f 69/209/125 148/208/125 136/19/125 59/18/125
f 135/6/126 117/5/126 131/176/126 143/186/126
f 143/186/127 131/176/127 125/170/127 144/189/127
f 144/189/128 125/170/128 124/167/128 150/194/128
f 150/194/129 124/167/129 116/166/129 136/191/129
f 77/117/130 115/157/130 120/160/130 80/118/130
f 80/118/131 120/160/131 130/164/131 81/121/131
f 81/121/132 130/164/132 129/174/132 88/128/132
f 88/128/133 129/174/133 117/5/133 78/8/133
f 134/9/134 96/12/134 101/210/134 137/211/134
f 137/178/135 101/140/135 111/144/135 138/181/135
f 138/181/136 111/144/136 110/154/136 145/188/136
f 145/188/137 110/154/137 98/7/137 135/6/137
f 97/146/138 79/131/138 93/134/138 105/147/138
f 105/147/139 93/134/139 87/129/139 106/150/139
f 106/150/140 87/129/140 86/126/140 112/156/140
f 112/156/141 86/126/141 78/8/141 98/7/141
f 1/21/142 77/212/142 82/213/142 4/22/142
f 4/22/143 82/213/143 92/214/143 5/25/143
f 5/36/144 92/215/144 91/216/144 12/32/144
f 12/32/145 91/216/145 79/1/145 2/4/145
f 96/12/146 21/11/146 31/56/146 99/217/146
f 99/217/147 31/56/147 24/60/147 100/218/147
f 100/219/148 24/49/148 23/46/148 107/220/148
f 107/220/149 23/46/149 20/3/149 97/2/149
f 39/70/150 115/197/150 77/212/150 1/21/150
f 231/221/1 249/222/1 172/223/1 154/224/1
f 269/225/2 287/226/2 250/227/2 230/228/2
f 286/229/3 210/230/3 173/231/3 248/232/3
f 155/233/4 174/234/4 212/235/4 192/236/4
f 193/237/5 211/238/5 288/239/5 268/240/5
f 153/241/6 156/242/6 159/243/6 158/244/6
f 156/242/7 157/245/7 160/246/7 159/243/7
f 158/244/8 159/243/8 171/247/8 168/248/8
f 159/243/9 160/246/9 161/249/9 171/247/9
f 154/224/10 162/250/10 165/251/10 164/252/10
f 162/250/11 163/253/11 166/254/11 165/251/11
f 164/252/12 165/251/12 160/255/12 157/256/12
f 165/251/13 166/254/13 161/257/13 160/255/13
f 155/233/14 167/258/14 170/259/14 169/260/14
f 167/258/15 168/261/15 171/262/15 170/259/15
f 169/260/16 170/259/16 166/263/16 163/264/16
f 170/259/17 171/262/17 161/265/17 166/263/17
f 172/223/18 175/266/18 178/267/18 177/268/18
f 175/266/19 176/269/19 179/270/19 178/267/19
f 177/268/20 178/267/20 190/271/20 187/272/20
f 178/267/21 179/270/21 180/273/21 190/271/21
f 173/231/22 181/274/22 184/275/22 183/276/22
f 181/274/23 182/277/23 185/278/23 184/275/23
f 183/276/24 184/275/24 179/279/24 176/280/24
f 184/275/25 185/278/25 180/281/25 179/279/25
f 174/234/26 186/282/26 189/283/26 188/284/26
f 186/282/27 187/285/27 190/286/27 189/283/27
f 188/284/28 189/283/28 185/287/28 182/288/28
f 189/283/29 190/286/29 180/289/29 185/287/29
f 191/290/30 194/291/30 197/292/30 196/293/30
f 194/291/31 195/294/31 198/295/31 197/292/31
f 196/293/32 197/292/32 209/296/32 206/297/32
f 197/292/33 198/295/33 199/298/33 209/296/33
f 192/236/34 200/299/34 203/300/34 202/301/34
f 200/299/35 201/302/35 204/303/35 203/300/35
f 202/301/36 203/300/36 198/304/36 195/305/36
f 203/300/37 204/303/37 199/306/37 198/304/37
f 193/307/38 205/308/38 208/309/38 207/310/38
f 205/308/39 206/311/39 209/312/39 208/309/39
f 207/310/40 208/309/40 204/303/40 201/302/40
f 208/309/41 209/312/41 199/313/41 204/303/41
f 210/230/42 213/314/42 216/315/42 215/316/42
f 213/314/43 214/317/43 217/318/43 216/315/43
f 215/316/44 216/315/44 228/319/44 225/320/44
f 216/315/45 217/318/45 218/321/45 228/319/45
f 211/322/46 219/323/46 222/324/46 221/325/46
f 219/323/47 220/326/47 223/327/47 222/324/47
f 221/325/48 222/324/48 217/328/48 214/329/48
f 222/324/49 223/327/49 218/330/49 217/328/49
f 212/235/50 224/331/50 227/332/50 226/333/50
f 224/331/51 225/334/51 228/335/51 227/332/51
f 226/333/52 227/332/52 223/327/52 220/326/52
f 227/332/53 228/335/53 218/336/53 223/327/53
f 229/337/54 232/338/54 235/339/54 234/340/54
f 232/338/55 233/341/55 236/342/55 235/339/55
f 234/340/56 235/339/56 247/343/56 244/344/56
f 235/339/57 236/342/57 237/345/57 247/343/57
f 230/228/58 238/346/58 241/347/58 240/348/58
f 238/346/59 239/349/59 242/350/59 241/347/59
f 240/348/60 241/347/60 236/342/60 233/341/60
f 241/347/61 242/350/61 237/345/61 236/342/61
f 231/351/62 243/352/62 246/353/62 245/354/62
f 243/352/63 244/355/63 247/356/63 246/353/63
f 245/354/64 246/353/64 242/350/64 239/349/64
f 246/353/65 247/356/65 237/345/65 242/350/65
f 248/357/66 251/358/66 254/359/66 253/360/66
f 251/358/67 252/361/67 255/362/67 254/359/67
f 253/360/68 254/359/68 266/363/68 263/364/68
f 254/359/69 255/362/69 256/365/69 266/363/69
f 249/366/70 257/367/70 260/368/70 259/369/70
f 257/367/71 258/370/71 261/371/71 260/368/71
f 259/369/72 260/368/72 255/372/72 252/373/72
f 260/368/73 261/371/73 256/365/73 255/372/73
f 250/227/74 262/374/74 265/375/74 264/376/74
f 262/374/75 263/364/75 266/363/75 265/375/75
f 264/376/76 265/375/76 261/371/76 258/370/76
f 265/375/77 266/363/77 256/365/77 261/371/77
f 267/377/78 270/378/78 273/379/78 272/380/78
f 270/378/79 271/381/79 274/382/79 273/379/79
f 272/380/80 273/379/80 285/383/80 282/384/80
f 273/379/81 274/382/81 275/385/81 285/383/81
f 268/386/82 276/387/82 279/388/82 278/389/82
f 276/387/83 277/390/83 280/391/83 279/388/83
f 278/389/84 279/388/84 274/392/84 271/393/84
f 279/388/85 280/391/85 275/385/85 274/392/85
f 269/225/86 281/394/86 284/395/86 283/396/86
f 281/394/87 282/384/87 285/383/87 284/395/87
f 283/396/88 284/395/88 280/391/88 277/390/88
f 284/395/89 285/383/89 275/385/89 280/391/89
f 286/397/90 289/398/90 292/399/90 291/400/90
f 289/398/91 290/401/91 293/402/91 292/399/91
f 291/400/92 292/399/92 304/403/92 301/404/92
f 292/399/93 293/402/93 294/405/93 304/403/93
f 287/226/94 295/406/94 298/407/94 297/408/94
f 295/406/95 296/409/95 299/410/95 298/407/95
f 297/408/96 298/407/96 293/402/96 290/401/96
f 298/407/97 299/410/97 294/405/97 293/402/97
f 288/411/98 300/412/98 303/413/98 302/414/98
f 300/412/99 301/415/99 304/416/99 303/413/99
f 302/414/100 303/413/100 299/410/100 296/409/100
f 303/413/101 304/416/101 294/405/101 299/410/101
f 191/290/102 153/241/102 158/244/102 194/291/102
f 194/291/103 158/244/103 168/248/103 195/294/103
f 195/305/104 168/261/104 167/258/104 202/301/104
f 202/301/105 167/258/105 155/233/105 192/236/105
f 154/224/106 172/223/106 177/268/106 162/250/106
f 162/250/107 177/268/107 187/272/107 163/253/107
f 163/264/108 187/285/108 186/282/108 169/260/108
f 169/260/109 186/282/109 174/234/109 155/233/109
f 173/231/110 210/230/110 215/316/110 181/274/110
f 181/274/111 215/316/111 225/320/111 182/277/111
f 182/288/112 225/334/112 224/331/112 188/284/112
f 188/284/113 224/331/113 212/235/113 174/234/113
f 211/322/114 193/307/114 207/310/114 219/323/114
f 219/323/115 207/310/115 201/302/115 220/326/115
f 220/326/116 201/302/116 200/299/116 226/333/116
f 226/333/117 200/299/117 192/236/117 212/235/117
f 267/417/118 191/290/118 196/293/118 270/418/118
f 270/418/119 196/293/119 206/297/119 271/419/119
f 271/420/120 206/421/120 205/422/120 278/423/120
f 278/423/121 205/422/121 193/237/121 268/240/121
f 210/230/122 286/229/122 291/424/122 213/314/122
f 213/314/123 291/424/123 301/425/123 214/317/123
f 214/426/124 301/427/124 300/428/124 221/429/124
f 221/429/125 300/428/125 288/239/125 211/238/125
f 287/226/126 269/225/126 283/396/126 295/406/126
f 295/406/127 283/396/127 277/390/127 296/409/127
f 296/409/128 277/390/128 276/387/128 302/414/128
f 302/414/129 276/387/129 268/386/129 288/411/129
f 229/337/130 267/377/130 272/380/130 232/338/130
f 232/338/131 272/380/131 282/384/131 233/341/131
f 233/341/132 282/384/132 281/394/132 240/348/132
f 240/348/133 281/394/133 269/225/133 230/228/133
f 286/397/134 248/357/134 253/360/134 289/398/134
f 289/398/135 253/360/135 263/364/135 290/401/135
f 290/401/136 263/364/136 262/374/136 297/408/136
f 297/408/137 262/374/137 250/227/137 287/226/137
f 249/366/138 231/351/138 245/354/138 257/367/138
f 257/367/139 245/354/139 239/349/139 258/370/139
f 258/370/140 239/349/140 238/346/140 264/376/140
f 264/376/141 238/346/141 230/228/141 250/227/141
f 153/241/142 229/430/142 234/431/142 156/242/142
f 156/242/143 234/431/143 244/432/143 157/245/143
f 157/256/144 244/433/144 243/434/144 164/252/144
f 164/252/145 243/434/145 231/221/145 154/224/145
f 248/232/146 173/231/146 183/276/146 251/435/146
f 251/435/147 183/276/147 176/280/147 252/436/147
f 252/437/148 176/269/148 175/266/148 259/438/148
f 259/438/149 175/266/149 172/223/149 249/222/149
f 191/290/150 267/417/150 229/430/150 153/241/150
f 383/439/1 401/440/1 324/441/1 306/442/1
f 421/443/2 439/444/2 402/445/2 382/446/2
f 438/447/3 362/448/3 325/449/3 400/450/3
f 307/451/4 326/452/4 364/453/4 344/454/4
f 345/455/5 363/456/5 440/457/5 420/458/5
f 305/459/6 308/460/6 311/461/6 310/462/6
f 308/460/7 309/463/7 312/464/7 311/461/7
f 310/462/8 311/461/8 323/465/8 320/466/8
f 311/461/9 312/464/9 313/467/9 323/465/9
f 306/442/10 314/468/10 317/469/10 316/470/10
f 314/468/11 315/471/11 318/472/11 317/469/11
f 316/470/12 317/469/12 312/473/12 309/474/12
f 317/469/13 318/472/13 313/475/13 312/473/13
f 307/451/14 319/476/14 322/477/14 321/478/14
f 319/476/15 320/479/15 323/480/15 322/477/15
f 321/478/16 322/477/16 318/481/16 315/482/16
f 322/477/17 323/480/17 313/483/17 318/481/17
f 324/441/18 327/484/18 330/485/18 329/486/18
f 327/484/19 328/487/19 331/488/19 330/485/19
f 329/486/20 330/485/20 342/489/20 339/490/20
f 330/485/21 331/488/21 332/491/21 342/489/21
f 325/449/22 333/492/22 336/493/22 335/494/22
f 333/492/23 334/495/23 337/496/23 336/493/23
f 335/494/24 336/493/24 331/497/24 328/498/24
f 336/493/25 337/496/25 332/499/25 331/497/25
f 326/452/26 338/500/26 341/501/26 340/502/26
f 338/500/27 339/503/27 342/504/27 341/501/27
f 340/502/28 341/501/28 337/505/28 334/506/28
f 341/501/29 342/504/29 332/507/29 337/505/29
f 343/508/30 346/509/30 349/510/30 348/511/30
f 346/509/31 347/512/31 350/513/31 349/510/31
f 348/511/32 349/510/32 361/514/32 358/515/32
f 349/510/33 350/513/33 351/516/33 361/514/33
f 344/454/34 352/517/34 355/518/34 354/519/34
f 352/517/35 353/520/35 356/521/35 355/518/35
f 354/519/36 355/518/36 350/522/36 347/523/36
f 355/518/37 356/521/37 351/524/37 350/522/37
f 345/525/38 357/526/38 360/527/38 359/528/38
f 357/526/39 358/529/39 361/530/39 360/527/39
f 359/528/40 360/527/40 356/521/40 353/520/40
f 360/527/41 361/530/41 351/531/41 356/521/41
f 362/448/42 365/532/42 368/533/42 367/534/42
f 365/532/43 366/535/43 369/536/43 368/533/43
f 367/534/44 368/533/44 380/537/44 377/538/44
f 368/533/45 369/536/45 370/539/45 380/537/45
f 363/540/46 371/541/46 374/542/46 373/543/46
f 371/541/47 372/544/47 375/545/47 374/542/47
f 373/543/48 374/542/48 369/546/48 366/547/48
f 374/542/49 375/545/49 370/548/49 369/546/49
f 364/453/50 376/549/50 379/550/50 378/551/50
f 376/549/51 377/552/51 380/553/51 379/550/51
f 378/551/52 379/550/52 375/545/52 372/544/52
f 379/550/53 380/553/53 370/554/53 375/545/53
f 381/555/54 384/556/54 387/557/54 386/558/54
f 384/556/55 385/559/55 388/560/55 387/557/55
f 386/558/56 387/557/56 399/561/56 396/562/56
f 387/557/57 388/560/57 389/563/57 399/561/57
f 382/446/58 390/564/58 393/565/58 392/566/58
f 390/564/59 391/567/59 394/568/59 393/565/59
f 392/566/60 393/565/60 388/560/60 385/559/60
f 393/565/61 394/568/61 389/563/61 388/560/61
f 383/569/62 395/570/62 398/571/62 397/572/62
f 395/570/63 396/573/63 399/574/63 398/571/63
f 397/572/64 398/571/64 394/568/64 391/567/64
f 398/571/65 399/574/65 389/563/65 394/568/65
f 400/575/66 403/576/66 406/577/66 405/578/66
f 403/576/67 404/579/67 407/580/67 406/577/67
f 405/578/68 406/577/68 418/581/68 415/582/68
f 406/577/69 407/580/69 408/583/69 418/581/69
f 401/584/70 409/585/70 412/586/70 411/587/70
f 409/585/71 410/588/71 413/589/71 412/586/71
f 411/587/72 412/586/72 407/590/72 404/591/72
f 412/586/73 413/589/73 408/583/73 407/590/73
f 402/445/74 414/592/74 417/593/74 416/594/74
f 414/592/75 415/582/75 418/581/75 417/593/75
f 416/594/76 417/593/76 413/589/76 410/588/76
f 417/593/77 418/581/77 408/583/77 413/589/77
f 419/595/78 422/596/78 425/597/78 424/598/78
f 422/596/79 423/599/79 426/600/79 425/597/79
f 424/598/80 425/597/80 437/601/80 434/602/80
f 425/597/81 426/600/81 427/603/81 437/601/81
f 420/604/82 428/605/82 431/606/82 430/607/82
f 428/605/83 429/608/83 432/609/83 431/606/83
f 430/607/84 431/606/84 426/610/84 423/611/84
f 431/606/85 432/609/85 427/603/85 426/610/85
f 421/443/86 433/612/86 436/613/86 435/614/86
f 433/612/87 434/602/87 437/601/87 436/613/87
f 435/614/88 436/613/88 432/609/88 429/608/88
f 436/613/89 437/601/89 427/603/89 432/609/89
f 438/615/90 441/616/90 444/617/90 443/618/90
f 441/616/91 442/619/91 445/620/91 444/617/91
f 443/618/92 444/617/92 456/621/92 453/622/92
f 444/617/93 445/620/93 446/623/93 456/621/93
f 439/444/94 447/624/94 450/625/94 449/626/94
f 447/624/95 448/627/95 451/628/95 450/625/95
f 449/626/96 450/625/96 445/620/96 442/619/96
f 450/625/97 451/628/97 446/623/97 445/620/97
f 440/629/98 452/630/98 455/631/98 454/632/98
f 452/630/99 453/633/99 456/634/99 455/631/99
f 454/632/100 455/631/100 451/628/100 448/627/100
f 455/631/101 456/634/101 446/623/101 451/628/101
f 343/508/102 305/459/102 310/462/102 346/509/102
f 346/509/103 310/462/103 320/466/103 347/512/103
f 347/523/104 320/479/104 319/476/104 354/519/104
f 354/519/105 319/476/105 307/451/105 344/454/105
f 306/442/106 324/441/106 329/486/106 314/468/106
f 314/468/107 329/486/107 339/490/107 315/471/107
f 315/482/108 339/503/108 338/500/108 321/478/108
f 321/478/109 338/500/109 326/452/109 307/451/109
f 325/449/110 362/448/110 367/534/110 333/492/110
f 333/492/111 367/534/111 377/538/111 334/495/111
f 334/506/112 377/552/112 376/549/112 340/502/112
f 340/502/113 376/549/113 364/453/113 326/452/113
f 363/540/114 345/525/114 359/528/114 371/541/114
f 371/541/115 359/528/115 353/520/115 372/544/115
f 372/544/116 353/520/116 352/517/116 378/551/116
f 378/551/117 352/517/117 344/454/117 364/453/117
f 419/635/118 343/508/118 348/511/118 422/636/118
f 422/636/119 348/511/119 358/515/119 423/637/119
f 423/638/120 358/639/120 357/640/120 430/641/120
f 430/641/121 357/640/121 345/455/121 420/458/121
f 362/448/122 438/447/122 443/642/122 365/532/122
f 365/532/123 443/642/123 453/643/123 366/535/123
f 366/644/124 453/645/124 452/646/124 373/647/124
f 373/647/125 452/646/125 440/457/125 363/456/125
f 439/444/126 421/443/126 435/614/126 447/624/126
f 447/624/127 435/614/127 429/608/127 448/627/127
f 448/627/128 429/608/128 428/605/128 454/632/128
f 454/632/129 428/605/129 420/604/129 440/629/129
f 381/555/130 419/595/130 424/598/130 384/556/130
f 384/556/131 424/598/131 434/602/131 385/559/131
f 385/559/132 434/602/132 433/612/132 392/566/132
f 392/566/133 433/612/133 421/443/133 382/446/133
f 438/615/134 400/575/134 405/578/134 441/616/134
f 441/616/135 405/578/135 415/582/135 442/619/135
f 442/619/136 415/582/136 414/592/136 449/626/136
f 449/626/137 414/592/137 402/445/137 439/444/137
f 401/584/138 383/569/138 397/572/138 409/585/138
f 409/585/139 397/572/139 391/567/139 410/588/139
f 410/588/140 391/567/140 390/564/140 416/594/140
f 416/594/141 390/564/141 382/446/141 402/445/141
f 305/459/142 381/648/142 386/649/142 308/460/142
f 308/460/143 386/649/143 396/650/143 309/463/143
f 309/474/144 396/651/144 395/652/144 316/470/144
f 316/470/145 395/652/145 383/439/145 306/442/145
f 400/450/146 325/449/146 335/494/146 403/653/146
f 403/653/147 335/494/147 328/498/147 404/654/147
f 404/655/148 328/487/148 327/484/148 411/656/148
f 411/656/149 327/484/149 324/441/149 401/440/149
f 343/508/150 419/635/150 381/648/150 305/459/150
o Cube.003_Cube.006
v -0.140000 0.054000 0.070000
v -0.140000 0.074000 0.070000
v -0.140000 0.054000 -0.070000
v -0.140000 0.074000 -0.070000
v -0.080000 0.054000 0.070000
v -0.080000 0.074000 0.070000
v -0.080000 0.054000 -0.070000
v -0.080000 0.074000 -0.070000
vt 0.520833 0.192086
vt 0.539697 0.192086
vt 0.539697 0.210950
vt 0.520833 0.210950
vt 0.539697 0.229814
vt 0.520833 0.229814
vt 0.539697 0.248677
vt 0.520833 0.248677
vt 0.539697 0.267541
vt 0.520833 0.267541
vt 0.501970 0.229814
vt 0.501970 0.248677
vt 0.404360 0.800141
vt 0.378194 0.783478
vt 0.389910 0.757312
vt 0.416077 0.773975
vn -1.0000 0.0000 0.0000
vn 0.0000 0.0000 -1.0000
vn 1.0000 0.0000 0.0000
vn 0.0000 0.0000 1.0000
vn 0.0000 -1.0000 0.0000
vn 0.0000 1.0000 0.0000
usemtl Material.002
s off
f 457/657/151 458/658/151 460/659/151 459/660/151
f 459/660/152 460/659/152 464/661/152 463/662/152
f 463/662/153 464/661/153 462/663/153 461/664/153
f 461/664/154 462/663/154 458/665/154 457/666/154
f 459/667/155 463/662/155 461/664/155 457/668/155
f 464/669/156 460/670/156 458/671/156 462/672/156
o Cube.004_Cube.007
v -0.011000 0.054000 0.062000
v -0.011000 0.056000 0.076000
v -0.025000 0.056000 0.062000
v -0.011000 0.054586 0.071899
v -0.019083 0.054845 0.070083
v -0.020899 0.056000 0.071899
v -0.020899 0.054586 0.062000
v -0.011000 0.072000 0.076000
v -0.011000 0.074000 0.062000
v -0.025000 0.072000 0.062000
v -0.011000 0.073414 0.071899
v -0.019083 0.073155 0.070083
v -0.020899 0.073414 0.062000
v -0.020899 0.072000 0.071899
v -0.011000 0.054000 -0.050000
v -0.025000 0.056000 -0.050000
v -0.011000 0.056000 -0.064000
v -0.020899 0.054586 -0.050000
v -0.019083 0.054845 -0.058083
v -0.020899 0.056000 -0.059899
v -0.011000 0.054586 -0.059899
v -0.011000 0.074000 -0.050000
v -0.011000 0.072000 -0.064000
v -0.025000 0.072000 -0.050000
v -0.011000 0.073414 -0.059899
v -0.019083 0.073155 -0.058083
v -0.020899 0.072000 -0.059899
v -0.020899 0.073414 -0.050000
v 0.101000 0.054000 0.062000
v 0.115000 0.056000 0.062000
v 0.101000 0.056000 0.076000
v 0.110900 0.054586 0.062000
v 0.109083 0.054845 0.070083
v 0.110900 0.056000 0.071899
v 0.101000 0.054586 0.071899
v 0.101000 0.074000 0.062000
v 0.101000 0.072000 0.076000
v 0.115000 0.072000 0.062000
v 0.101000 0.073414 0.071899
v 0.109083 0.073155 0.070083
v 0.110900 0.072000 0.071899
v 0.110900 0.073414 0.062000
v 0.101000 0.054000 -0.050000
v 0.101000 0.056000 -0.064000
v 0.115000 0.056000 -0.050000
v 0.101000 0.054586 -0.059899
v 0.109083 0.054845 -0.058083
v 0.110900 0.056000 -0.059899
v 0.110900 0.054586 -0.050000
v 0.101000 0.074000 -0.050000
v 0.115000 0.072000 -0.050000
v 0.101000 0.072000 -0.064000
v 0.110900 0.073414 -0.050000
v 0.109083 0.073155 -0.058083
v 0.110900 0.072000 -0.059899
v 0.101000 0.073414 -0.059899
vt 0.429557 0.523221
vt 0.434936 0.526044
vt 0.432951 0.531423
vt 0.427572 0.528600
vt 0.432039 0.516496
vt 0.437418 0.519320
vt 0.435433 0.524699
vt 0.430053 0.521876
vt 0.613690 0.511544
vt 0.531496 0.663790
vt 0.424444 0.581597
vt 0.506637 0.429351
vt 0.437002 0.503048
vt 0.442381 0.505872
vt 0.440396 0.511251
vt 0.435016 0.508428
vt 0.434520 0.509772
vt 0.439899 0.512596
vt 0.437914 0.517975
vt 0.432535 0.515152
vt 0.423329 0.518347
vt 0.423081 0.519019
vt 0.422693 0.518815
vt 0.422657 0.517994
vt 0.427324 0.529272
vt 0.426935 0.529069
vt 0.426899 0.528247
vt 0.436329 0.502695
vt 0.436473 0.502307
vt 0.437250 0.502376
vt 0.429546 0.524995
vt 0.429982 0.525700
vt 0.429696 0.525952
vt 0.429050 0.525431
vt 0.414170 0.600628
vt 0.406444 0.594696
vt 0.411062 0.571323
vt 0.448386 0.508426
vt 0.448882 0.507990
vt 0.449134 0.508397
vt 0.448823 0.509131
vt 0.425314 0.512967
vt 0.424642 0.512614
vt 0.424785 0.512226
vt 0.425563 0.512295
vt 0.434768 0.509100
vt 0.434380 0.508896
vt 0.434344 0.508075
vt 0.433848 0.509419
vt 0.433991 0.509031
vt 0.544878 0.674065
vt 0.538946 0.685052
vt 0.521222 0.682821
vt 0.443428 0.512786
vt 0.443924 0.512350
vt 0.444176 0.512757
vt 0.443864 0.513491
vt 0.444420 0.511914
vt 0.444856 0.512619
vt 0.444570 0.512871
vt 0.428709 0.521170
vt 0.429381 0.521523
vt 0.429228 0.522245
vt 0.428460 0.521842
vt 0.429805 0.522548
vt 0.428885 0.522868
vt 0.493256 0.419077
vt 0.505415 0.401493
vt 0.516912 0.410320
vt 0.433512 0.521507
vt 0.434008 0.521071
vt 0.434514 0.521714
vt 0.433948 0.522212
vt 0.434504 0.520635
vt 0.434940 0.521340
vt 0.430694 0.515791
vt 0.430942 0.515118
vt 0.431579 0.515566
vt 0.431366 0.516144
vt 0.432287 0.515824
vt 0.431863 0.514799
vt 0.623964 0.492514
vt 0.638793 0.500107
vt 0.627071 0.521819
vt 0.438470 0.517146
vt 0.438966 0.516710
vt 0.439341 0.517316
vt 0.438906 0.517851
vt 0.439462 0.516274
vt 0.439898 0.516979
vt 0.432703 0.532096
vt 0.442629 0.505199
vt 0.440148 0.511923
vt 0.437666 0.518647
vt 0.435185 0.525372
vn 0.0000 0.0000 1.0000
vn 1.0000 0.0000 0.0000
vn 0.0000 1.0000 0.0000
vn -1.0000 0.0000 0.0000
vn 0.0000 0.0000 -1.0000
vn -0.0521 -0.9973 0.0521
vn -0.1319 -0.9234 0.3604
vn -0.3604 -0.9234 0.1319
vn -0.1319 0.9234 0.3604
vn -0.0521 0.9973 0.0521
vn -0.3604 0.9234 0.1319
vn -0.0521 -0.9973 -0.0521
vn -0.3604 -0.9234 -0.1319
vn -0.1319 -0.9234 -0.3604
vn -0.0521 0.9973 -0.0521
vn -0.1319 0.9234 -0.3604
vn -0.3604 0.9234 -0.1319
vn 0.0521 -0.9973 0.0521
vn 0.3604 -0.9234 0.1319
vn 0.1319 -0.9234 0.3604
vn 0.0521 0.9973 0.0521
vn 0.1319 0.9234 0.3604
vn 0.3604 0.9234 0.1319
vn 0.0521 -0.9973 -0.0521
vn 0.1319 -0.9234 -0.3604
vn 0.3604 -0.9234 -0.1319
vn 0.0521 0.9973 -0.0521
vn 0.3604 0.9234 -0.1319
vn 0.1319 0.9234 -0.3604
vn -0.0591 -0.9983 0.0000
vn -0.3260 -0.9454 0.0000
vn -0.3827 0.0000 0.9239
vn -0.9239 0.0000 0.3827
vn -0.0591 0.9983 0.0000
vn -0.3260 0.9454 0.0000
vn -0.3827 0.0000 -0.9239
vn -0.9239 0.0000 -0.3827
vn 0.0000 -0.9983 -0.0591
vn 0.0000 -0.9454 -0.3260
vn 0.0000 0.9983 -0.0591
vn 0.0000 0.9454 -0.3260
vn 0.9239 0.0000 -0.3827
vn 0.3827 0.0000 -0.9239
vn 0.0591 -0.9983 0.0000
vn 0.3260 -0.9454 0.0000
vn 0.0591 0.9983 0.0000
vn 0.3260 0.9454 0.0000
vn 0.3827 0.0000 0.9239
vn 0.9239 0.0000 0.3827
vn 0.0000 -0.9983 0.0591
vn 0.0000 -0.9454 0.3260
vn 0.0000 0.9983 0.0591
vn 0.0000 0.9454 0.3260
vn 0.0000 -1.0000 0.0000
usemtl Material.001
s off
f 495/673/157 501/674/157 472/675/157 466/676/157
f 509/677/158 515/678/158 502/679/158 494/680/158
f 514/681/159 486/682/159 473/683/159 500/684/159
f 467/685/160 474/686/160 488/687/160 480/688/160
f 481/689/161 487/690/161 516/691/161 508/692/161
f 465/693/162 468/694/162 469/695/162 471/696/162
f 466/676/163 470/697/163 469/698/163 468/699/163
f 467/685/164 471/700/164 469/701/164 470/702/164
f 472/703/165 475/704/165 476/705/165 478/706/165
f 473/683/166 477/707/166 476/708/166 475/709/166
f 474/710/167 478/711/167 476/712/167 477/713/167
f 479/714/168 482/715/168 483/716/168 485/717/168
f 480/688/169 484/718/169 483/719/169 482/720/169
f 481/689/170 485/721/170 483/722/170 484/718/170
f 486/682/171 489/723/171 490/724/171 492/725/171
f 487/726/172 491/727/172 490/728/172 489/729/172
f 488/730/173 492/731/173 490/732/173 491/727/173
f 493/733/174 496/734/174 497/735/174 499/736/174
f 494/680/175 498/737/175 497/735/175 496/734/175
f 495/673/176 499/738/176 497/735/176 498/737/176
f 500/684/177 503/739/177 504/740/177 506/741/177
f 501/742/178 505/743/178 504/744/178 503/745/178
f 502/746/179 506/747/179 504/744/179 505/743/179
f 507/748/180 510/749/180 511/750/180 513/751/180
f 508/692/181 512/752/181 511/750/181 510/753/181
f 509/677/182 513/751/182 511/750/182 512/752/182
f 514/681/183 517/754/183 518/755/183 520/756/183
f 515/757/184 519/758/184 518/759/184 517/760/184
f 516/761/185 520/762/185 518/759/185 519/758/185
f 479/714/186 465/693/186 471/696/186 482/715/186
f 482/720/187 471/700/187 467/685/187 480/688/187
f 466/676/188 472/675/188 478/763/188 470/697/188
f 470/702/189 478/764/189 474/686/189 467/685/189
f 473/683/190 486/682/190 492/725/190 477/707/190
f 477/713/191 492/731/191 488/730/191 474/710/191
f 487/690/192 481/689/192 484/718/192 491/765/192
f 491/765/193 484/718/193 480/688/193 488/687/193
f 507/748/194 479/714/194 485/717/194 510/749/194
f 510/753/195 485/721/195 481/689/195 508/692/195
f 486/682/196 514/681/196 520/756/196 489/723/196
f 489/729/197 520/762/197 516/761/197 487/726/197
f 515/678/198 509/677/198 512/752/198 519/766/198
f 519/766/199 512/752/199 508/692/199 516/691/199
f 493/733/200 507/748/200 513/751/200 496/734/200
f 496/734/201 513/751/201 509/677/201 494/680/201
f 514/681/202 500/684/202 506/741/202 517/754/202
f 517/760/203 506/747/203 502/746/203 515/757/203
f 501/674/204 495/673/204 498/737/204 505/767/204
f 505/767/205 498/737/205 494/680/205 502/679/205
f 465/693/206 493/733/206 499/736/206 468/694/206
f 468/699/207 499/738/207 495/673/207 466/676/207
f 500/684/208 473/683/208 475/709/208 503/739/208
f 503/745/209 475/704/209 472/703/209 501/742/209
f 479/714/210 507/748/210 493/733/210 465/693/210
